<svg xmlns="http://www.w3.org/2000/svg" viewBox="0 0 771 365">
  <style>
    path {
      fill: #333;
      stroke: #333;
      stroke-width: 0.5;
    }

    @media (prefers-color-scheme: dark) {
      path {
        fill: #ccc;
        stroke: #ccc;
      }
    }
  </style>

  <path d="M2.9 13.3V6.4h3.8v1h-3v6z"/>
  <path d="M2.9 26.3v-14h.8v14z"/>
  <path d="M2.9 39.3v-14h.8v14z"/>
  <path d="M2.9 52.3v-14h.8v14z"/>
  <path d="M2.9 65.3v-14h.8v14z"/>
  <path d="M2.9 78.3v-14h.8v14z"/>
  <path d="M2.9 91.3v-14h.8v14z"/>
  <path d="M2.9 104.3v-14h.8v14z"/>
  <path d="M2.9 117.3v-14h.8v14z"/>
  <path d="M2.9 130.3v-14h.8v14z"/>
  <path d="M2.9 143.3v-14h.8v14z"/>
  <path d="M2.9 156.3v-14h.8v14z"/>
  <path d="M2.9 169.3v-14h.8v14z"/>
  <path d="M2.9 182.3v-14h.8v14z"/>
  <path d="M2.9 195.3v-14h.8v14z"/>
  <path d="M2.9 208.3v-14h.8v14z"/>
  <path d="M2.9 221.3v-14h.8v14z"/>
  <path d="M2.9 234.3v-14h.8v14z"/>
  <path d="M2.9 247.3v-14h.8v14z"/>
  <path d="M2.9 260.3v-14h.8v14z"/>
  <path d="M2.9 273.3v-14h.8v14z"/>
  <path d="M2.9 286.3v-14h.8v14z"/>
  <path d="M2.9 299.3v-14h.8v14z"/>
  <path d="M2.9 312.3v-14h.8v14z"/>
  <path d="M2.9 325.3v-14h.8v14z"/>
  <path d="M2.9 338.3v-14h.8v14z"/>
  <path d="M2.9 351.3v-14h.8v14z"/>
  <path d="M2.9 358.3v-8h.8v7.1h3v1zm4 0v-.9h6.8v1zm7 0v-.9h6.8v1zm7 0v-.9h6.8v1zm7 0v-.9h6.8v1zm7 0v-.9h6.8v1zm7 0v-.9h6.8v1zm7 0v-.9h6.8v1zm7 0v-.9h6.8v1zm7 0v-.9h6.8v1zm7 0v-.9h6.8v1zm7 0v-.9h6.8v1zm7 0v-.9h6.8v1zm7 0v-.9h6.8v1zm7 0v-.9h6.8v1zm7 0v-.9h6.8v1zm7 0v-.9h6.8v1zm7 0v-.9h6.8v1zm7 0v-.9h6.8v1zm7 0v-.9h6.8v1zm7 0v-.9h6.8v1zm7 0v-.9h6.8v1zm7 0v-.9h6.8v1zm7 0v-.9h6.8v1zm7 0v-.9h6.8v1zm7 0v-.9h6.8v1zm7 0v-.9h6.8v1zm7 0v-.9h6.8v1zm7 0v-.9h6.8v1zm7 0v-.9h6.8v1zm7 0v-.9h6.8v1zm7 0v-.9h6.8v1zm7 0v-.9h6.8v1zm7 0v-.9h3v-7.1h.8v8zm38 0v-8h.8v7.1h3v1zm4 0v-.9h6.8v1zm7 0v-.9h6.8v1zm7 0v-.9h6.8v1zm7 0v-.9h6.8v1zm7 0v-.9h6.8v1zm7 0v-.9h6.8v1zm7 0v-.9h6.8v1zm7 0v-.9h6.8v1zm7 0v-.9h6.8v1zm7 0v-.9h6.8v1zm7 0v-.9h6.8v1zm7 0v-.9h6.8v1zm7 0v-.9h6.8v1zm7 0v-.9h6.8v1zm7 0v-.9h6.8v1zm7 0v-.9h6.8v1zm7 0v-.9h6.8v1zm7 0v-.9h6.8v1zm7 0v-.9h6.8v1zm7 0v-.9h6.8v1zm7 0v-.9h6.8v1zm7 0v-.9h6.8v1zm7 0v-.9h6.8v1zm7 0v-.9h6.8v1zm7 0v-.9h6.8v1zm7 0v-.9h6.8v1zm7 0v-.9h6.8v1zm7 0v-.9h6.8v1zm7 0v-.9h6.8v1zm7 0v-.9h6.8v1zm7 0v-.9h6.8v1zm7 0v-.9h6.8v1zm7 0v-.9h3v-7.1h.8v8zm38 0v-8h.8v7.1h3v1zm4 0v-.9h6.8v1zm7 0v-.9h6.8v1zm7 0v-.9h6.8v1zm7 0v-.9h6.8v1zm7 0v-.9h6.8v1zm7 0v-.9h6.8v1zm7 0v-.9h6.8v1zm7 0v-.9h6.8v1zm7 0v-.9h6.8v1zm7 0v-.9h6.8v1zm7 0v-.9h6.8v1zm7 0v-.9h6.8v1zm7 0v-.9h6.8v1zm7 0v-.9h6.8v1zm7 0v-.9h6.8v1zm7 0v-.9h6.8v1zm7 0v-.9h6.8v1zm7 0v-.9h6.8v1zm7 0v-.9h6.8v1zm7 0v-.9h6.8v1zm7 0v-.9h6.8v1zm7 0v-.9h6.8v1zm7 0v-.9h6.8v1zm7 0v-.9h6.8v1zm7 0v-.9h6.8v1zm7 0v-.9h6.8v1zm7 0v-.9h6.8v1zm7 0v-.9h6.8v1zm7 0v-.9h6.8v1zm7 0v-.9h6.8v1zm7 0v-.9h6.8v1zm7 0v-.9h6.8v1zm7 0v-.9h3v-7.1h.8v8zM20 347.3l-1 .6q-.6.3-1.2.3-1.6 0-2.4-1.1-.9-1.1-.9-3.1t1-3q.8-1.2 2.3-1.2l1 .2.9.4v1.1l-1-.6q-.4-.2-.9-.2-1 0-1.6.8-.5.9-.5 2.5 0 1.7.5 2.5t1.6.8l.6-.1q.3 0 .5-.3v-2.1h-1.2v-1H20zm4.3-4.6q-.7 0-1.1.6-.4.5-.4 1.7 0 1.1.4 1.7.4.6 1.1.6.8 0 1.2-.6.3-.6.3-1.7 0-1.2-.3-1.7-.4-.6-1.2-.6zm0-.9q1.3 0 2 .9.6.8.6 2.3 0 1.5-.7 2.3-.6.9-1.9.9-1.2 0-1.9-.9-.7-.8-.7-2.3 0-1.5.7-2.3.7-.9 2-.9zm7 .9q-.7 0-1.1.6-.4.5-.4 1.7 0 1.1.4 1.7.4.6 1.1.6.8 0 1.2-.6.3-.6.3-1.7 0-1.2-.3-1.7-.4-.6-1.2-.6zm0-.9q1.3 0 2 .9.6.8.6 2.3 0 1.5-.7 2.3-.6.9-1.9.9-1.2 0-1.9-.9-.7-.8-.7-2.3 0-1.5.7-2.3.7-.9 2-.9zm8.3 3.2q0-1.2-.4-1.7-.3-.6-1-.6t-1.1.6q-.4.5-.4 1.6 0 1.2.4 1.7.4.6 1.1.6.7 0 1-.6.4-.5.4-1.7zm1 2.6q0 1.4-.6 2-.7.8-2 .8l-.8-.1-.9-.2v-1l1 .4h.8q.8 0 1.1-.4.4-.4.4-1.3v-.8q-.2.5-.6.8-.4.2-1 .2-1 0-1.7-.8-.6-.8-.6-2.3 0-1.4.6-2.2.6-.9 1.7-.9.6 0 1 .3.4.2.6.7v-.8h1zm5.3-1.8q0 .7.2 1 .3.4.7.4H48v.8h-1.3q-.9 0-1.3-.6-.5-.5-.5-1.6v-5.4h-1.6v-.8h2.6zm9.1-1.3v.5h-4.3q0 1.2.5 1.8.5.5 1.5.5l1-.1 1-.5v1l-1 .3-1 .2q-1.5 0-2.2-.9-.8-.8-.8-2.3 0-1.4.7-2.3.8-.9 2.1-.9 1.1 0 1.8.8t.7 1.9zm-1-.3q0-.6-.4-1-.4-.5-1.1-.5-.8 0-1.2.4-.5.5-.5 1.1zm14.8 3.5-.9.3q-.4.2-1 .2-1.5 0-2.3-1.1-.9-1.1-.9-3.1t.9-3q.9-1.2 2.4-1.2l1 .1.8.4v1l-.9-.4q-.4-.2-1-.2-1 0-1.5.8T65 344q0 1.6.5 2.5.5.8 1.6.8l1-.2.8-.5zm5.1-1.9q0 .7.2 1 .3.4.7.4H76v.8h-1.3q-.9 0-1.3-.6-.5-.5-.5-1.6v-5.4h-1.6v-.8h2.6zm6.4-3.1q-.7 0-1.1.6-.4.5-.4 1.7 0 1.1.4 1.7.4.6 1.1.6.8 0 1.2-.6.3-.6.3-1.7 0-1.2-.3-1.7-.4-.6-1.2-.6zm0-.9q1.3 0 2 .9.6.8.6 2.3 0 1.5-.7 2.3-.6.9-1.9.9-1.2 0-1.9-.9-.7-.8-.7-2.3 0-1.5.7-2.3.7-.9 2-.9zm4.7 3.9V342h1v3.7q0 .8.3 1.2.3.4 1 .4.6 0 1-.5t.4-1.4V342h1v6h-1v-.9q-.3.5-.8.8-.4.3-1 .3-1 0-1.4-.6-.5-.7-.5-1.9zm10.6-2.9v-3.2h1v8.4h-1v-.8q-.2.5-.6.7-.5.3-1 .3-1 0-1.7-.9-.6-.8-.6-2.3 0-1.5.6-2.3.6-.9 1.7-.9.5 0 1 .3.4.2.6.7zm-2.9 2.2q0 1.1.4 1.7.3.6 1 .6.8 0 1.1-.6.4-.6.4-1.7t-.4-1.7q-.3-.6-1-.6-.8 0-1.1.6-.4.5-.4 1.7z"/>
  <path d="M233.9 351.3v-14h.8v14zm35 0v-14h.8v14zm17.1-4-1 .6q-.6.3-1.2.3-1.6 0-2.4-1.1-.9-1.1-.9-3.1t1-3q.8-1.2 2.3-1.2l1 .2.9.4v1.1l-1-.6q-.4-.2-.9-.2-1 0-1.6.8-.5.9-.5 2.5 0 1.7.5 2.5t1.6.8l.6-.1q.3 0 .5-.3v-2.1h-1.2v-1h2.2zm2.7-5.3h2.5v5.2h2v.8h-5v-.8h2v-4.4h-1.5zm1.5-2.3h1v1.2h-1zm7.1.6v1.7h2.2v.8h-2.2v3.2q0 .7.3 1 .2.2.8.2h1.1v.8h-1.2q-1 0-1.5-.4-.5-.5-.5-1.6v-3.2h-1.6v-.8h1.6v-1.7zm4.4-.3h1.1v3h3v-3h1v8h-1v-4h-3v4h-1zm7.3 5.7V342h1v3.7q0 .8.3 1.2.3.4 1 .4.6 0 1-.5t.4-1.4V342h1v6h-1v-.9q-.3.5-.8.8-.4.3-1 .3-1 0-1.4-.6-.5-.7-.5-1.9zm11-.7q0-1.2-.4-1.7-.4-.6-1.1-.6-.7 0-1.1.6-.4.6-.4 1.7t.4 1.7q.4.6 1 .6.8 0 1.2-.6.3-.6.3-1.7zm-3-2.2q.3-.5.7-.7.4-.3 1-.3 1 0 1.6.9.7.8.7 2.3 0 1.5-.7 2.3-.6.9-1.7.9-.5 0-1-.3l-.6-.7v.8h-1v-8.4h1zm182.9 8.5v-14h.8v14zm35 0v-14h.8v14zm17.1-4-1 .6q-.6.3-1.2.3-1.6 0-2.4-1.1-.9-1.1-.9-3.1t1-3q.8-1.2 2.3-1.2l1 .2.9.4v1.1l-1-.6q-.4-.2-.9-.2-1 0-1.6.8-.5.9-.5 2.5 0 1.7.5 2.5t1.6.8l.6-.1q.3 0 .5-.3v-2.1h-1.2v-1h2.2zm4.3-4.6q-.7 0-1.1.6-.4.5-.4 1.7 0 1.1.4 1.7.4.6 1.1.6.8 0 1.2-.6.3-.6.3-1.7 0-1.2-.3-1.7-.4-.6-1.2-.6zm0-.9q1.3 0 2 .9.6.8.6 2.3 0 1.5-.7 2.3-.6.9-1.9.9-1.2 0-1.9-.9-.7-.8-.7-2.3 0-1.5.7-2.3.7-.9 2-.9zm7 .9q-.7 0-1.1.6-.4.5-.4 1.7 0 1.1.4 1.7.4.6 1.1.6.8 0 1.2-.6.3-.6.3-1.7 0-1.2-.3-1.7-.4-.6-1.2-.6zm0-.9q1.3 0 2 .9.6.8.6 2.3 0 1.5-.7 2.3-.6.9-1.9.9-1.2 0-1.9-.9-.7-.8-.7-2.3 0-1.5.7-2.3.7-.9 2-.9zm8.3 3.2q0-1.2-.4-1.7-.3-.6-1-.6t-1.1.6q-.4.5-.4 1.6 0 1.2.4 1.7.4.6 1.1.6.7 0 1-.6.4-.5.4-1.7zm1 2.6q0 1.4-.6 2-.7.8-2 .8l-.8-.1-.9-.2v-1l1 .4h.8q.8 0 1.1-.4.4-.4.4-1.3v-.8q-.2.5-.6.8-.4.2-1 .2-1 0-1.7-.8-.6-.8-.6-2.3 0-1.4.6-2.2.6-.9 1.7-.9.6 0 1 .3.4.2.6.7v-.8h1zm5.3-1.8q0 .7.2 1 .3.4.7.4h1.2v.8h-1.3q-.9 0-1.3-.6-.5-.5-.5-1.6v-5.4h-1.6v-.8h2.6zm9.1-1.3v.5h-4.3q0 1.2.5 1.8.5.5 1.5.5l1-.1 1-.5v1l-1 .3-1 .2q-1.5 0-2.2-.9-.8-.8-.8-2.3 0-1.4.7-2.3.8-.9 2.1-.9 1.1 0 1.8.8t.7 1.9zm-1-.3q0-.6-.4-1-.4-.5-1.1-.5-.8 0-1.2.4-.5.5-.5 1.1zm14.8 3.5-.9.3q-.4.2-1 .2-1.5 0-2.3-1.1-.9-1.1-.9-3.1t.9-3q.9-1.2 2.4-1.2l1 .1.8.4v1l-.9-.4q-.4-.2-1-.2-1 0-1.5.8t-.5 2.5q0 1.6.5 2.5.5.8 1.6.8l1-.2.8-.5zm5.1-1.9q0 .7.2 1 .3.4.7.4h1.2v.8h-1.3q-.9 0-1.3-.6-.5-.5-.5-1.6v-5.4h-1.6v-.8h2.6zm6.4-3.1q-.7 0-1.1.6-.4.5-.4 1.7 0 1.1.4 1.7.4.6 1.1.6.8 0 1.2-.6.3-.6.3-1.7 0-1.2-.3-1.7-.4-.6-1.2-.6zm0-.9q1.3 0 2 .9.6.8.6 2.3 0 1.5-.7 2.3-.6.9-1.9.9-1.2 0-1.9-.9-.7-.8-.7-2.3 0-1.5.7-2.3.7-.9 2-.9zm4.7 3.9V342h1v3.7q0 .8.3 1.2.3.4 1 .4.6 0 1-.5t.4-1.4V342h1v6h-1v-.9q-.3.5-.8.8-.4.3-1 .3-1 0-1.4-.6-.5-.7-.5-1.9zm10.6-2.9v-3.2h1v8.4h-1v-.8q-.2.5-.6.7-.5.3-1 .3-1 0-1.7-.9-.6-.8-.6-2.3 0-1.5.6-2.3.6-.9 1.7-.9.5 0 1 .3.4.2.6.7zm-2.9 2.2q0 1.1.4 1.7.3.6 1 .6.8 0 1.1-.6.4-.6.4-1.7t-.4-1.7q-.3-.6-1-.6-.8 0-1.1.6-.4.5-.4 1.7zm141.2 6.3v-14h.8v14zm-735-312v-6.9h3.8v1h-3v6z"/>
  <path d="M30.9 52.3v-14h.8v14z"/>
  <path d="M30.9 65.3v-14h.8v14z"/>
  <path d="M30.9 78.3v-14h.8v14z"/>
  <path d="M30.9 91.3v-14h.8v14z"/>
  <path d="M30.9 104.3v-14h.8v14z"/>
  <path d="M30.9 117.3v-14h.8v14z"/>
  <path d="M30.9 130.3v-14h.8v14z"/>
  <path d="M30.9 137.3v-8h.8v7.1h3v1zm0 84v-6.9h3.8v1h-3v6z"/>
  <path d="M30.9 234.3v-14h.8v14z"/>
  <path d="M30.9 247.3v-14h.8v14z"/>
  <path d="M30.9 260.3v-14h.8v14z"/>
  <path d="M30.9 273.3v-14h.8v14z"/>
  <path d="M30.9 286.3v-14h.8v14z"/>
  <path d="M30.9 299.3v-14h.8v14z"/>
  <path d="M30.9 312.3v-14h.8v14z"/>
  <path d="M30.9 319.3v-8h.8v7.1h3v1zm203 19v-14h.8v14zm35 0v-14h.8v14zm231 0v-14h.8v14zm35 0v-14h.8v14zm231 0v-14h.8v14zm-731-19v-.9h6.8v1zm7 0v-.9h6.8v1zm7 0v-.9h6.8v1zm7 0v-.9h6.8v1zm7 0v-.9h6.8v1zm7 0v-.9h6.8v1zm7 0v-.9h6.8v1zm7 0v-.9h6.8v1zm7 0v-.9h6.8v1zm7 0v-.9h6.8v1zm7 0v-.9h6.8v1zm7 0v-.9h6.8v1zm7 0v-.9h6.8v1zm7 0v-.9h6.8v1zm7 0v-.9h6.8v1zm7 0v-.9h6.8v1zm7 0v-.9h6.8v1zm7 0v-.9h6.8v1zm7 0v-.9h6.8v1zm7 0v-.9h6.8v1zm7 0v-.9h6.8v1zm7 0v-.9h6.8v1zm7 0v-.9h6.8v1zm7 0v-.9h6.8v1zm7 0v-.9h3v-7.1h.8v8z"/>
  <path d="M233.9 325.3v-14h.8v14zm35 0v-14h.8v14zm28-6v-8h.8v7.1h3v1zm4 0v-.9h6.8v1zm7 0v-.9h6.8v1zm7 0v-.9h6.8v1zm7 0v-.9h6.8v1zm7 0v-.9h6.8v1zm7 0v-.9h6.8v1zm7 0v-.9h6.8v1zm7 0v-.9h6.8v1zm7 0v-.9h6.8v1zm7 0v-.9h6.8v1zm7 0v-.9h6.8v1zm7 0v-.9h6.8v1zm7 0v-.9h6.8v1zm7 0v-.9h6.8v1zm7 0v-.9h6.8v1zm7 0v-.9h6.8v1zm7 0v-.9h6.8v1zm7 0v-.9h6.8v1zm7 0v-.9h6.8v1zm7 0v-.9h6.8v1zm7 0v-.9h6.8v1zm7 0v-.9h6.8v1zm7 0v-.9h6.8v1zm7 0v-.9h6.8v1zm7 0v-.9h3v-7.1h.8v8zm31 6v-14h.8v14zm35 0v-14h.8v14zm28-6v-8h.8v7.1h3v1zm4 0v-.9h6.8v1zm7 0v-.9h6.8v1zm7 0v-.9h6.8v1zm7 0v-.9h6.8v1zm7 0v-.9h6.8v1zm7 0v-.9h6.8v1zm7 0v-.9h6.8v1zm7 0v-.9h6.8v1zm7 0v-.9h6.8v1zm7 0v-.9h6.8v1zm7 0v-.9h6.8v1zm7 0v-.9h6.8v1zm7 0v-.9h6.8v1zm7 0v-.9h6.8v1zm7 0v-.9h6.8v1zm7 0v-.9h6.8v1zm7 0v-.9h6.8v1zm7 0v-.9h6.8v1zm7 0v-.9h6.8v1zm7 0v-.9h6.8v1zm7 0v-.9h6.8v1zm7 0v-.9h6.8v1zm7 0v-.9h6.8v1zm7 0v-.9h6.8v1zm7 0v-.9h3v-7.1h.8v8zm31 6v-14h.8v14zm-711.5-63v1l-1-.4-1-.2q-.7 0-1.2.4-.4.3-.4 1 0 .5.3.7.3.3 1 .5l.6.1q1.2.3 1.7.9.5.5.5 1.5 0 1.2-.7 1.8-.7.6-2 .6L51 270q-.6 0-1.2-.3v-1.2l1.2.6 1.1.2q.8 0 1.3-.4t.5-1q0-.6-.4-1-.3-.3-1-.4l-.6-.2q-1.1-.2-1.6-.7-.6-.5-.6-1.4 0-1 .8-1.7.7-.7 1.9-.7l1 .1 1 .4zm151.5 24v-14h.8v14z"/>
  <path d="M205.9 299.3v-14h.8v14z"/>
  <path d="M205.9 312.3v-14h.8v14zm28-26v-14h.8v14z"/>
  <path d="M233.9 299.3v-14h.8v14z"/>
  <path d="M233.9 312.3v-14h.8v14zm35-26v-14h.8v14z"/>
  <path d="M268.9 299.3v-14h.8v14z"/>
  <path d="M268.9 312.3v-14h.8v14zm28-26v-14h.8v14z"/>
  <path d="M296.9 299.3v-14h.8v14z"/>
  <path d="M296.9 312.3v-14h.8v14zm175-26v-14h.8v14z"/>
  <path d="M471.9 299.3v-14h.8v14z"/>
  <path d="M471.9 312.3v-14h.8v14zm28-26v-14h.8v14z"/>
  <path d="M499.9 299.3v-14h.8v14z"/>
  <path d="M499.9 312.3v-14h.8v14zm14-19v-8h.8v7.1h3v1zm21 19v-14h.8v14zm28 0v-14h.8v14zm175 0v-14h.8v14zm28 0v-14h.8v14zm-241-19v-.9h6.8v1z"/>
  <path d="M534.9 299.3v-14h.8v14zm4-6v-.9h6.8v1zm14.1 3.1V290l6.6 3.2zm9.9 2.9v-14h.8v14zm76.1-5.5h2v2.2h-2zm7 0h2v2.2h-2zm7 0h2v2.2h-2zm84.9 5.5v-14h.8v14zm28 0v-14h.8v14z"/>
  <path d="M534.9 286.3v-14h.8v14zm28 0v-14h.8v14zm175 0v-14h.8v14zm28 0v-14h.8v14zM62 266.5v.5h-4.3q0 1.2.5 1.8.5.5 1.5.5l1-.1 1-.5v1l-1 .3-1 .2q-1.5 0-2.2-.9-.8-.8-.8-2.3 0-1.4.7-2.3.8-.9 2.1-.9 1.1 0 1.8.8t.7 1.9zm-1-.3q0-.6-.4-1-.4-.5-1.1-.5-.8 0-1.2.4-.5.5-.5 1.1zm8.2-1-.6-.3-.8-.1q-.9 0-1.4.5-.5.6-.5 1.7v3h-1v-6h1v1.2q.3-.7.8-1 .5-.4 1.2-.4l.7.1.6.3zm1.3-1.2h1l1.8 5 1.8-5h1l-2.2 6h-1.2zm8.2 0h2.5v5.2h2v.8h-5v-.8h2v-4.4h-1.5zm1.5-2.3h1v1.2h-1zm9.5 8-.8.3q-.4.2-.9.2-1.4 0-2.2-.9-.8-.8-.8-2.3 0-1.5.8-2.3.8-.9 2.2-.9.5 0 .9.2.4 0 .8.3v1l-.8-.5-.9-.1q-1 0-1.4.6-.5.6-.5 1.7t.5 1.7q.5.6 1.4.6l1-.1.7-.5zm7.3-3.2v.5h-4.3q0 1.2.5 1.8.5.5 1.5.5l1-.1 1-.5v1l-1 .3-1 .2q-1.5 0-2.2-.9-.8-.8-.8-2.3 0-1.4.7-2.3.8-.9 2.1-.9 1.1 0 1.8.8t.7 1.9zm-1-.3q0-.6-.4-1-.4-.5-1.1-.5-.8 0-1.2.4-.5.5-.5 1.1zm12.3-3.2-1.1 4h2.3zm-.6-1h1.3l2.4 8h-1.1l-.6-2H107l-.6 2h-1.1zm10 7.7-.8.3q-.4.2-.9.2-1.4 0-2.2-.9-.8-.8-.8-2.3 0-1.5.8-2.3.8-.9 2.2-.9.5 0 .9.2.4 0 .8.3v1l-.8-.5-.9-.1q-1 0-1.4.6-.5.6-.5 1.7t.5 1.7q.5.6 1.4.6l1-.1.7-.5zm7 0-.8.3q-.4.2-.9.2-1.4 0-2.2-.9-.8-.8-.8-2.3 0-1.5.8-2.3.8-.9 2.2-.9.5 0 .9.2.4 0 .8.3v1l-.8-.5-.9-.1q-1 0-1.4.6-.5.6-.5 1.7t.5 1.7q.5.6 1.4.6l1-.1.7-.5zm4.6-5q-.7 0-1.1.6-.4.5-.4 1.7 0 1.1.4 1.7.4.6 1.1.6.8 0 1.2-.6.3-.6.3-1.7 0-1.2-.3-1.7-.4-.6-1.2-.6zm0-.9q1.3 0 2 .9.6.8.6 2.3 0 1.5-.7 2.3-.6.9-1.9.9-1.2 0-1.9-.9-.7-.8-.7-2.3 0-1.5.7-2.3.7-.9 2-.9zm4.7 3.9V264h1v3.7q0 .8.3 1.2.3.4 1 .4.6 0 1-.5t.4-1.4V264h1v6h-1v-.9q-.3.5-.8.8-.4.3-1 .3-1 0-1.4-.6-.5-.7-.5-1.9zm11.6-1.4v3.7h-1v-3.7q0-.8-.2-1.2-.3-.4-1-.4-.6 0-1 .5t-.4 1.4v3.4h-1v-6h1v.9q.3-.5.7-.8.5-.3 1.1-.3 1 0 1.4.6.4.6.4 1.9zm4.7-4v1.7h2.2v.8h-2.2v3.2q0 .7.3 1 .2.2.8.2h1.1v.8h-1.2q-1 0-1.5-.4-.5-.5-.5-1.6v-3.2h-1.6v-.8h1.6v-1.7zm11.4-.3h1.1v3.5l3.4-3.5h1.3l-3.1 3.3 3.2 4.7h-1.3l-2.6-4-.9.9v3.1h-1zm12.3 4.5v.5h-4.3q0 1.2.5 1.8.5.5 1.5.5l1-.1 1-.5v1l-1 .3-1 .2q-1.5 0-2.2-.9-.8-.8-.8-2.3 0-1.4.7-2.3.8-.9 2.1-.9 1.1 0 1.8.8t.7 1.9zm-1-.3q0-.6-.4-1-.4-.5-1.1-.5-.8 0-1.2.4-.5.5-.5 1.1zm6.6 1.8-.6 1.7-.7 1.8q-.3.4-.7.6-.3.2-.8.2h-.8v-.8h.6q.4 0 .7-.3l.6-1.3-2.3-6h1l1.8 4.8 1.7-4.7h1zm26.3 5.3v-14h.8v14zm4-6v-.9h6.8v1zm14 0v-.9h6.8v1zm10 6v-14h.8v14zm4-6v-.9h6.8v1zm14 0v-.9h6.8v1zm17.8 0v6h-.8v-6h-3v-.9h3v-7.1h.8v7.1h3v1zm10.2 0v-.9h6.8v1zm7.1 3.1V264l6.6 3.2zm9.9 2.9v-14h.8v14zm45.1-4-1 .6q-.6.3-1.2.3-1.6 0-2.4-1.1-.9-1.1-.9-3.1t1-3q.8-1.2 2.3-1.2l1 .2.9.4v1.1l-1-.6q-.4-.2-.9-.2-1 0-1.6.8-.5.9-.5 2.5 0 1.7.5 2.5t1.6.8l.6-.1q.3 0 .5-.3v-2.1h-1.2v-1h2.2zm2.7-5.3h2.5v5.2h2v.8h-5v-.8h2v-4.4h-1.5zm1.5-2.3h1v1.2h-1zm7.1.6v1.7h2.2v.8h-2.2v3.2q0 .7.3 1 .2.2.8.2h1.1v.8h-1.2q-1 0-1.5-.4-.5-.5-.5-1.6v-3.2h-1.6v-.8h1.6v-1.7zm4.4-.3h1.1v3h3v-3h1v8h-1v-4h-3v4h-1zm7.3 5.7V264h1v3.7q0 .8.3 1.2.3.4 1 .4.6 0 1-.5t.4-1.4V264h1v6h-1v-.9q-.3.5-.8.8-.4.3-1 .3-1 0-1.4-.6-.5-.7-.5-1.9zm11-.7q0-1.2-.4-1.7-.4-.6-1.1-.6-.7 0-1.1.6-.4.6-.4 1.7t.4 1.7q.4.6 1 .6.8 0 1.2-.6.3-.6.3-1.7zm-3-2.2q.3-.5.7-.7.4-.3 1-.3 1 0 1.6.9.7.8.7 2.3 0 1.5-.7 2.3-.6.9-1.7.9-.5 0-1-.3l-.6-.7v.8h-1v-8.4h1zm17.4-2.5v1l-1-.4-1-.2q-.7 0-1.2.4-.4.3-.4 1 0 .5.3.7.3.3 1 .5l.6.1q1.2.3 1.7.9.5.5.5 1.5 0 1.2-.7 1.8-.7.6-2 .6l-1.2-.2q-.6 0-1.2-.3v-1.2l1.2.6 1.1.2q.8 0 1.3-.4t.5-1q0-.6-.4-1-.3-.3-1-.4l-.6-.2q-1.1-.2-1.6-.7-.6-.5-.6-1.4 0-1 .8-1.7.7-.7 1.9-.7l1 .1 1 .4zm7.6 4.2v.5h-4.3q0 1.2.5 1.8.5.5 1.5.5l1-.1 1-.5v1l-1 .3-1 .2q-1.5 0-2.2-.9-.8-.8-.8-2.3 0-1.4.7-2.3.8-.9 2.1-.9 1.1 0 1.8.8t.7 1.9zm-1-.3q0-.6-.4-1-.4-.5-1.1-.5-.8 0-1.2.4-.5.5-.5 1.1zm7.7 3.5-.8.3q-.4.2-.9.2-1.4 0-2.2-.9-.8-.8-.8-2.3 0-1.5.8-2.3.8-.9 2.2-.9.5 0 .9.2.4 0 .8.3v1l-.8-.5-.9-.1q-1 0-1.4.6-.5.6-.5 1.7t.5 1.7q.5.6 1.4.6l1-.1.7-.5zm7.5-4.5-.6-.3-.8-.1q-.9 0-1.4.5-.5.6-.5 1.7v3h-1v-6h1v1.2q.3-.7.8-1 .5-.4 1.2-.4l.7.1.6.3zm6.8 1.3v.5h-4.3q0 1.2.5 1.8.5.5 1.5.5l1-.1 1-.5v1l-1 .3-1 .2q-1.5 0-2.2-.9-.8-.8-.8-2.3 0-1.4.7-2.3.8-.9 2.1-.9 1.1 0 1.8.8t.7 1.9zm-1-.3q0-.6-.4-1-.4-.5-1.1-.5-.8 0-1.2.4-.5.5-.5 1.1zm5.3-3.9v1.7h2.2v.8h-2.2v3.2q0 .7.3 1 .2.2.8.2h1.1v.8h-1.2q-1 0-1.5-.4-.5-.5-.5-1.6v-3.2h-1.6v-.8h1.6v-1.7zm8.9 1.9v1l-.8-.4-.9-.1q-.7 0-1 .2-.3.2-.3.6 0 .5.2.6l1.2.4.4.1q.8.2 1.2.6.3.4.3 1 0 1-.6 1.5t-1.8.5l-.9-.1-1-.3v-1l1 .4 1 .1q.6 0 1-.2.3-.3.3-.8 0-.7-1.3-1h-.4q-.9-.2-1.2-.6-.4-.4-.4-1 0-1 .6-1.4.5-.5 1.6-.5l1 .1.8.3zm39.7 9.1v-14h.8v14zm28 0v-14h.8v14zm14 0v-14h.8v14z"/>
  <path d="M534.9 273.3v-14h.8v14zm28 0v-6.9h3.8v1h-3v6zm4-6v-.9h6.8v1zm7 0v-.9h6.8v1zm7 0v-.9h6.8v1zm7 0v-.9h6.8v1zm7 0v-.9h6.8v1zm7 0v-.9h6.8v1zm7 0v-.9h6.8v1zm7 0v-.9h6.8v1zm7 0v-.9h6.8v1zm7 0v-.9h6.8v1zm7 0v-.9h6.8v1zm7 0v-.9h6.8v1zm7 0v-.9h6.8v1zm7 0v-.9h6.8v1zm7 0v-.9h6.8v1zm7 0v-.9h6.8v1zm7 0v-.9h6.8v1zm7 0v-.9h6.8v1zm7 0v-.9h6.8v1zm7 0v-.9h6.8v1zm7 0v-.9h6.8v1zm7 0v-.9h6.8v1zm7 0v-.9h6.8v1zm7 0v-.9h6.8v1zm10 6v-6h-3v-.9h3.8v7zm28 0v-14h.8v14zm-560-39v-14h.8v14z"/>
  <path d="M205.9 247.3v-14h.8v14z"/>
  <path d="M205.9 260.3v-14h.8v14zm28-26v-14h.8v14z"/>
  <path d="M233.9 247.3v-14h.8v14z"/>
  <path d="M233.9 260.3v-14h.8v14zm35-26v-14h.8v14z"/>
  <path d="M268.9 247.3v-14h.8v14z"/>
  <path d="M268.9 260.3v-14h.8v14zm28-26v-14h.8v14z"/>
  <path d="M296.9 247.3v-14h.8v14z"/>
  <path d="M296.9 260.3v-14h.8v14zm175-26v-14h.8v14z"/>
  <path d="M471.9 247.3v-14h.8v14z"/>
  <path d="M471.9 260.3v-14h.8v14zm28-26v-14h.8v14z"/>
  <path d="M499.9 247.3v-14h.8v14z"/>
  <path d="M499.9 260.3v-14h.8v14zm14-13v-14h.8v14zm21 13v-14h.8v14zm231 0v-14h.8v14z"/>
  <path d="M534.9 247.3v-14h.8v14zm28-6v-8h.8v7.1h3v1zm4 0v-.9h6.8v1zm7 0v-.9h6.8v1zm7 0v-.9h6.8v1zm7 0v-.9h6.8v1zm7 0v-.9h6.8v1zm7 0v-.9h6.8v1zm7 0v-.9h6.8v1zm7 0v-.9h6.8v1zm7 0v-.9h6.8v1zm7 0v-.9h6.8v1zm7 0v-.9h6.8v1zm7 0v-.9h6.8v1zm7 0v-.9h6.8v1zm7 0v-.9h6.8v1zm7 0v-.9h6.8v1zm7 0v-.9h6.8v1zm7 0v-.9h6.8v1zm7 0v-.9h6.8v1zm7 0v-.9h6.8v1zm7 0v-.9h6.8v1zm7 0v-.9h6.8v1zm7 0v-.9h6.8v1zm7 0v-.9h6.8v1zm7 0v-.9h6.8v1zm7 0v-.9h3v-7.1h.8v8zm31 6v-14h.8v14z"/>
  <path d="M534.9 234.3v-14h.8v14zm28 0v-14h.8v14zm175 0v-14h.8v14zm28 0v-14h.8v14zm-731-19v-.9h6.8v1zm7 0v-.9h6.8v1zm7 0v-.9h6.8v1zm7 0v-.9h6.8v1zm7 0v-.9h6.8v1zm7 0v-.9h6.8v1zm7 0v-.9h6.8v1zm7 0v-.9h6.8v1zm7 0v-.9h6.8v1zm7 0v-.9h6.8v1zm7 0v-.9h6.8v1zm7 0v-.9h6.8v1zm7 0v-.9h6.8v1zm7 0v-.9h6.8v1zm7 0v-.9h6.8v1zm7 0v-.9h6.8v1zm7 0v-.9h6.8v1zm7 0v-.9h6.8v1zm7 0v-.9h6.8v1zm7 0v-.9h6.8v1zm7 0v-.9h6.8v1zm7 0v-.9h6.8v1zm7 0v-.9h6.8v1zm7 0v-.9h6.8v1zm10 6v-6h-3v-.9h3.8v7zm28 0v-14h.8v14zm35 0v-14h.8v14zm28 0v-6.9h3.8v1h-3v6zm4-6v-.9h6.8v1zm7 0v-.9h6.8v1zm7 0v-.9h6.8v1zm7 0v-.9h6.8v1zm7 0v-.9h6.8v1zm7 0v-.9h6.8v1zm7 0v-.9h6.8v1zm7 0v-.9h6.8v1zm7 0v-.9h6.8v1zm7 0v-.9h6.8v1zm7 0v-.9h6.8v1zm7 0v-.9h6.8v1zm7 0v-.9h6.8v1zm7 0v-.9h6.8v1zm7 0v-.9h6.8v1zm7 0v-.9h6.8v1zm7 0v-.9h6.8v1zm7 0v-.9h6.8v1zm7 0v-.9h6.8v1zm7 0v-.9h6.8v1zm7 0v-.9h6.8v1zm7 0v-.9h6.8v1zm7 0v-.9h6.8v1zm7 0v-.9h6.8v1zm10 6v-6h-3v-.9h3.8v7zm28 0v-14h.8v14zm14 0v-14h.8v7.1h3v1h-3v6zm11-6v-.9h6.8v1z"/>
  <path d="M534.9 221.3v-14h.8v14zm4-6v-.9h6.8v1zm14.1 3.1V212l6.6 3.2zm9.9 2.9v-14h.8v14zm23.9-3.6-.9.3q-.4.2-1 .2-1.5 0-2.3-1.1-.9-1.1-.9-3.1t.9-3q.9-1.2 2.4-1.2l1 .1.8.4v1l-.9-.4q-.4-.2-1-.2-1 0-1.5.8t-.5 2.5q0 1.6.5 2.5.5.8 1.6.8l1-.2.8-.5zm5.1-1.9q0 .7.2 1 .3.4.7.4h1.2v.8h-1.3q-.9 0-1.3-.6-.5-.5-.5-1.6v-5.4h-1.6v-.8h2.6zm6.4-3.1q-.7 0-1.1.6-.4.5-.4 1.7 0 1.1.4 1.7.4.6 1.1.6.8 0 1.2-.6.3-.6.3-1.7 0-1.2-.3-1.7-.4-.6-1.2-.6zm0-.9q1.3 0 2 .9.6.8.6 2.3 0 1.5-.7 2.3-.6.9-1.9.9-1.2 0-1.9-.9-.7-.8-.7-2.3 0-1.5.7-2.3.7-.9 2-.9zm4.7 3.9V212h1v3.7q0 .8.3 1.2.3.4 1 .4.6 0 1-.5t.4-1.4V212h1v6h-1v-.9q-.3.5-.8.8-.4.3-1 .3-1 0-1.4-.6-.5-.7-.5-1.9zm10.6-2.9v-3.2h1v8.4h-1v-.8q-.2.5-.6.7-.5.3-1 .3-1 0-1.7-.9-.6-.8-.6-2.3 0-1.5.6-2.3.6-.9 1.7-.9.5 0 1 .3.4.2.6.7zm-2.9 2.2q0 1.1.4 1.7.3.6 1 .6.8 0 1.1-.6.4-.6.4-1.7t-.4-1.7q-.3-.6-1-.6-.8 0-1.1.6-.4.5-.4 1.7zm17.7-4.7v1l-1-.4-1-.2q-.7 0-1.2.4-.4.3-.4 1 0 .5.3.7.3.3 1 .5l.6.1q1.2.3 1.7.9.5.5.5 1.5 0 1.2-.7 1.8-.7.6-2 .6l-1.2-.2q-.6 0-1.2-.3v-1.2l1.2.6 1.1.2q.8 0 1.3-.4t.5-1q0-.6-.4-1-.3-.3-1-.4l-.6-.2q-1.1-.2-1.6-.7-.6-.5-.6-1.4 0-1 .8-1.7.7-.7 1.9-.7l1 .1 1 .4zm4.9 0v1.7h2.2v.8h-2.2v3.2q0 .7.3 1 .2.2.8.2h1.1v.8h-1.2q-1 0-1.5-.4-.5-.5-.5-1.6v-3.2h-1.6v-.8h1.6v-1.7zm7 2.4q-.7 0-1.1.6-.4.5-.4 1.7 0 1.1.4 1.7.4.6 1.1.6.8 0 1.2-.6.3-.6.3-1.7 0-1.2-.3-1.7-.4-.6-1.2-.6zm0-.9q1.3 0 2 .9.6.8.6 2.3 0 1.5-.7 2.3-.6.9-1.9.9-1.2 0-1.9-.9-.7-.8-.7-2.3 0-1.5.7-2.3.7-.9 2-.9zm9.9 1.4-.6-.3-.8-.1q-.9 0-1.4.5-.5.6-.5 1.7v3h-1v-6h1v1.2q.3-.7.8-1 .5-.4 1.2-.4l.7.1.6.3zm4.6 1.8h-.4q-.8 0-1.3.3-.4.3-.4.9 0 .5.3.8.4.3 1 .3.8 0 1.2-.5.5-.6.5-1.6v-.2zm1.9-.4v3.4h-1v-.9q-.3.5-.8.8-.5.3-1.2.3-.9 0-1.4-.6-.6-.5-.6-1.4 0-1 .7-1.5t2-.5h1.3v-.2q0-.7-.4-1-.3-.3-1.1-.3l-1 .1-1 .4v-1l1-.3h1q.7 0 1.3.2.5.2.8.6l.3.7v1.2zm5.9.4q0-1.2-.4-1.7-.3-.6-1-.6t-1.1.6q-.4.5-.4 1.6 0 1.2.4 1.7.4.6 1.1.6.7 0 1-.6.4-.5.4-1.7zm1 2.6q0 1.4-.6 2-.7.8-2 .8l-.8-.1-.9-.2v-1l1 .4h.8q.8 0 1.1-.4.4-.4.4-1.3v-.8q-.2.5-.6.8-.4.2-1 .2-1 0-1.7-.8-.6-.8-.6-2.3 0-1.4.6-2.2.6-.9 1.7-.9.6 0 1 .3.4.2.6.7v-.8h1zm7.4-3.1v.5h-4.3q0 1.2.5 1.8.5.5 1.5.5l1-.1 1-.5v1l-1 .3-1 .2q-1.5 0-2.2-.9-.8-.8-.8-2.3 0-1.4.7-2.3.8-.9 2.1-.9 1.1 0 1.8.8t.7 1.9zm-1-.3q0-.6-.4-1-.4-.5-1.1-.5-.8 0-1.2.4-.5.5-.5 1.1zm11-.2v3.1h1.3q1 0 1.3-.3.4-.4.4-1.1 0-1-.4-1.4-.4-.3-1.3-.3zm0-3.1v2.2h1.2q.8 0 1.2-.3.3-.3.3-.8 0-.6-.3-.9-.4-.2-1.2-.2zm-1.1-1h2.4q1.2 0 1.9.6.6.5.6 1.5 0 .5-.3 1-.4.4-1 .5.7.1 1.2.7.4.5.4 1.6 0 1-.7 1.6-.7.6-2.1.6h-2.4zm7.1 5.8V212h1v3.7q0 .8.3 1.2.3.4 1 .4.6 0 1-.5t.4-1.4V212h1v6h-1v-.9q-.3.5-.8.8-.4.3-1 .3-1 0-1.4-.6-.5-.7-.5-1.9zm11.7 2-.8.3q-.4.2-.9.2-1.4 0-2.2-.9-.8-.8-.8-2.3 0-1.5.8-2.3.8-.9 2.2-.9.5 0 .9.2.4 0 .8.3v1l-.8-.5-.9-.1q-1 0-1.4.6-.5.6-.5 1.7t.5 1.7q.5.6 1.4.6l1-.1.7-.5zm2.6-8.1h1v4.9l2.6-2.5h1.2l-2.4 2.3 2.8 3.7h-1.3l-2.2-3.1-.7.7v2.4h-1zm11.7 4.9v.5h-4.3q0 1.2.5 1.8.5.5 1.5.5l1-.1 1-.5v1l-1 .3-1 .2q-1.5 0-2.2-.9-.8-.8-.8-2.3 0-1.4.7-2.3.8-.9 2.1-.9 1.1 0 1.8.8t.7 1.9zm-1-.3q0-.6-.4-1-.4-.5-1.1-.5-.8 0-1.2.4-.5.5-.5 1.1zm5.3-3.9v1.7h2.2v.8h-2.2v3.2q0 .7.3 1 .2.2.8.2h1.1v.8h-1.2q-1 0-1.5-.4-.5-.5-.5-1.6v-3.2h-1.6v-.8h1.6v-1.7zm20.6 11v-14h.8v14zm28 0v-14h.8v14zm-644-65v-14h.8v14zm0 26v-14h.8v14zm0 26v-14h.8v14zm112 0v-14h.8v14zm35 0v-14h.8v14zm119.4-2.9L385 199h6.6zm111.6 2.9v-14h.8v14z"/>
  <path d="M534.9 208.3v-14h.8v14zm28 0v-14h.8v14zm175 0v-14h.8v14zm28 0v-14h.8v14zm-532-13v-14h.8v14zm35 0v-14h.8v14zm119 0v-14h.8v14zm112 0v-14h.8v14zm14 0v-14h.8v14z"/>
  <path d="M534.9 195.3v-14h.8v14zm28 0v-6.9h3.8v1h-3v6zm4-6v-.9h6.8v1zm7 0v-.9h6.8v1zm7 0v-.9h6.8v1zm7 0v-.9h6.8v1zm7 0v-.9h6.8v1zm7 0v-.9h6.8v1zm7 0v-.9h6.8v1zm7 0v-.9h6.8v1zm7 0v-.9h6.8v1zm7 0v-.9h6.8v1zm7 0v-.9h6.8v1zm7 0v-.9h6.8v1zm7 0v-.9h6.8v1zm7 0v-.9h6.8v1zm7 0v-.9h6.8v1zm7 0v-.9h6.8v1zm7 0v-.9h6.8v1zm7 0v-.9h6.8v1zm7 0v-.9h6.8v1zm7 0v-.9h6.8v1zm7 0v-.9h6.8v1zm7 0v-.9h6.8v1zm7 0v-.9h6.8v1zm7 0v-.9h6.8v1zm10 6v-6h-3v-.9h3.8v7zm28 0v-14h.8v14zm-532-13v-14h.8v14zm35 0v-14h.8v14zm117.6-4.3h1.6v-6l-2 1v-1l2-1h1.1v7h1.7v1h-4.4zm113.4 4.3v-14h.8v14z"/>
  <path d="M534.9 182.3v-14h.8v14zm231 0v-14h.8v14zm-532-13v-14h.8v14zm35 0v-14h.8v14zm119 0v-14h.8v14zm112 0v-14h.8v14zm14 0v-14h.8v14z"/>
  <path d="M534.9 169.3v-14h.8v14zm28-6v-8h.8v7.1h3v1zm4 0v-.9h6.8v1zm7 0v-.9h6.8v1zm7 0v-.9h6.8v1zm7 0v-.9h6.8v1zm7 0v-.9h6.8v1zm7 0v-.9h6.8v1zm7 0v-.9h6.8v1zm7 0v-.9h6.8v1zm7 0v-.9h6.8v1zm7 0v-.9h6.8v1zm7 0v-.9h6.8v1zm7 0v-.9h6.8v1zm7 0v-.9h6.8v1zm7 0v-.9h6.8v1zm7 0v-.9h6.8v1zm7 0v-.9h6.8v1zm7 0v-.9h6.8v1zm7 0v-.9h6.8v1zm7 0v-.9h6.8v1zm7 0v-.9h6.8v1zm7 0v-.9h6.8v1zm7 0v-.9h6.8v1zm7 0v-.9h6.8v1zm7 0v-.9h6.8v1zm7 0v-.9h3v-7.1h.8v8zm31 6v-14h.8v14zm-532-13v-14h.8v14zm35 0v-14h.8v14zm116.1-2.9 3.3-6.5 3.3 6.5zm114.9 2.9v-14h.8v14z"/>
  <path d="M534.9 156.3v-14h.8v14zm28 0v-14h.8v14zm175 0v-14h.8v14zm28 0v-14h.8v14zm-731-19v-.9h6.8v1zm7 0v-.9h6.8v1zm7 0v-.9h6.8v1zm7 0v-.9h6.8v1zm7 0v-.9h6.8v1zm7 0v-.9h6.8v1zm7 0v-.9h6.8v1zm7 0v-.9h6.8v1zm7 0v-.9h6.8v1zm7 0v-.9h6.8v1zm7 0v-.9h6.8v1zm7 0v-.9h6.8v1zm7 0v-.9h6.8v1zm7 0v-.9h6.8v1zm7 0v-.9h6.8v1zm7 0v-.9h6.8v1zm7 0v-.9h6.8v1zm7 0v-.9h6.8v1zm7 0v-.9h6.8v1zm7 0v-.9h6.8v1zm7 0v-.9h6.8v1zm7 0v-.9h6.8v1zm7 0v-.9h6.8v1zm7 0v-.9h6.8v1zm7 0v-.9h3v-7.1h.8v8zm31 6v-14h.8v14zm35 0v-14h.8v14zm28-6v-8h.8v7.1h3v1zm4 0v-.9h6.8v1zm7 0v-.9h6.8v1zm7 0v-.9h6.8v1zm7 0v-.9h6.8v1zm7 0v-.9h6.8v1zm7 0v-.9h6.8v1zm7 0v-.9h6.8v1zm7 0v-.9h6.8v1zm7 0v-.9h6.8v1zm7 0v-.9h6.8v1zm7 0v-.9h6.8v1zm7 0v-.9h6.8v1zm7 0v-.9h6.8v1zm7 0v-.9h6.8v1zm7 0v-.9h6.8v1zm7 0v-.9h6.8v1zm7 0v-.9h6.8v1zm7 0v-.9h6.8v1zm7 0v-.9h6.8v1zm7 0v-.9h6.8v1zm7 0v-.9h6.8v1zm7 0v-.9h6.8v1zm7 0v-.9h6.8v1zm7 0v-.9h6.8v1zm7 0v-.9h3v-7.1h.8v8zm31 6v-14h.8v14zm14 0v-14h.8v7.1h3v1h-3v6zm11-6v-.9h6.8v1z"/>
  <path d="M534.9 143.3v-14h.8v14zm4-6v-.9h6.8v1zm14.1 3.1V134l6.6 3.2zm9.9 2.9v-14h.8v14zm30.9-3.6-.9.3q-.4.2-1 .2-1.5 0-2.3-1.1-.9-1.1-.9-3.1t.9-3q.9-1.2 2.4-1.2l1 .1.8.4v1l-.9-.4q-.4-.2-1-.2-1 0-1.5.8t-.5 2.5q0 1.6.5 2.5.5.8 1.6.8l1-.2.8-.5zm5.1-1.9q0 .7.2 1 .3.4.7.4h1.2v.8h-1.3q-.9 0-1.3-.6-.5-.5-.5-1.6v-5.4h-1.6v-.8h2.6zm6.4-3.1q-.7 0-1.1.6-.4.5-.4 1.7 0 1.1.4 1.7.4.6 1.1.6.8 0 1.2-.6.3-.6.3-1.7 0-1.2-.3-1.7-.4-.6-1.2-.6zm0-.9q1.3 0 2 .9.6.8.6 2.3 0 1.5-.7 2.3-.6.9-1.9.9-1.2 0-1.9-.9-.7-.8-.7-2.3 0-1.5.7-2.3.7-.9 2-.9zm4.7 3.9V134h1v3.7q0 .8.3 1.2.3.4 1 .4.6 0 1-.5t.4-1.4V134h1v6h-1v-.9q-.3.5-.8.8-.4.3-1 .3-1 0-1.4-.6-.5-.7-.5-1.9zm10.6-2.9v-3.2h1v8.4h-1v-.8q-.2.5-.6.7-.5.3-1 .3-1 0-1.7-.9-.6-.8-.6-2.3 0-1.5.6-2.3.6-.9 1.7-.9.5 0 1 .3.4.2.6.7zm-2.9 2.2q0 1.1.4 1.7.3.6 1 .6.8 0 1.1-.6.4-.6.4-1.7t-.4-1.7q-.3-.6-1-.6-.8 0-1.1.6-.4.5-.4 1.7zm16.3-.8q.5.1.8.4.3.3.7 1.2l1.1 2.2h-1.1l-1-2q-.4-.9-.7-1.1-.4-.3-.9-.3h-1v3.4h-1.1v-8h2.2q1.3 0 2 .6t.7 1.7q0 .8-.4 1.3t-1.2.6zm-2-3.2v2.8h1.1q.8 0 1.2-.3.4-.4.4-1.1 0-.7-.4-1-.4-.4-1.2-.4zm6 4.7V134h1v3.7q0 .8.3 1.2.3.4 1 .4.6 0 1-.5t.4-1.4V134h1v6h-1v-.9q-.3.5-.8.8-.4.3-1 .3-1 0-1.4-.6-.5-.7-.5-1.9zm11.6-1.4v3.7h-1v-3.7q0-.8-.2-1.2-.3-.4-1-.4-.6 0-1 .5t-.4 1.4v3.4h-1v-6h1v.9q.3-.5.8-.8.4-.3 1-.3 1 0 1.4.6.4.6.4 1.9zm13.8-4v1l-1-.4-1-.2q-.7 0-1.2.4-.4.3-.4 1 0 .5.3.7.3.3 1 .5l.6.1q1.2.3 1.7.9.5.5.5 1.5 0 1.2-.7 1.8-.7.6-2 .6l-1.2-.2q-.6 0-1.2-.3v-1.2l1.2.6 1.1.2q.8 0 1.3-.4t.5-1q0-.6-.4-1-.3-.3-1-.4l-.6-.2q-1.1-.2-1.6-.7-.6-.5-.6-1.4 0-1 .8-1.7.7-.7 1.9-.7l1 .1 1 .4zm7.6 4.2v.5h-4.3q0 1.2.5 1.8.5.5 1.5.5l1-.1 1-.5v1l-1 .3-1 .2q-1.5 0-2.2-.9-.8-.8-.8-2.3 0-1.4.7-2.3.8-.9 2.1-.9 1.1 0 1.8.8t.7 1.9zm-1-.3q0-.6-.4-1-.4-.5-1.1-.5-.8 0-1.2.4-.5.5-.5 1.1zm8.2-1-.6-.3-.8-.1q-.9 0-1.4.5-.5.6-.5 1.7v3h-1v-6h1v1.2q.3-.7.8-1 .5-.4 1.2-.4l.7.1.6.3zm1.3-1.2h1l1.8 5 1.8-5h1l-2.2 6h-1.2zm8.2 0h2.5v5.2h2v.8h-5v-.8h2v-4.4h-1.5zm1.5-2.3h1v1.2h-1zm9.5 8-.8.3q-.4.2-.9.2-1.4 0-2.2-.9-.8-.8-.8-2.3 0-1.5.8-2.3.8-.9 2.2-.9.5 0 .9.2.4 0 .8.3v1l-.8-.5-.9-.1q-1 0-1.4.6-.5.6-.5 1.7t.5 1.7q.5.6 1.4.6l1-.1.7-.5zm7.3-3.2v.5h-4.3q0 1.2.5 1.8.5.5 1.5.5l1-.1 1-.5v1l-1 .3-1 .2q-1.5 0-2.2-.9-.8-.8-.8-2.3 0-1.4.7-2.3.8-.9 2.1-.9 1.1 0 1.8.8t.7 1.9zm-1-.3q0-.6-.4-1-.4-.5-1.1-.5-.8 0-1.2.4-.5.5-.5 1.1zm32.9 7.1v-14h.8v14zm28 0v-14h.8v14zm-697.5-63v1l-1-.4-1-.2q-.7 0-1.2.4-.4.3-.4 1 0 .5.3.7.3.3 1 .5l.6.1q1.2.3 1.7.9.5.5.5 1.5 0 1.2-.7 1.8-.7.6-2 .6L65 88q-.6 0-1.2-.3v-1.2l1.2.6 1.1.2q.8 0 1.3-.4t.5-1q0-.6-.4-1-.3-.3-1-.4l-.6-.2q-1.1-.2-1.6-.7-.6-.5-.6-1.4 0-1 .8-1.7.7-.7 1.9-.7l1 .1 1 .4zm137.5 24v-14h.8v14z"/>
  <path d="M205.9 117.3v-14h.8v14z"/>
  <path d="M205.9 130.3v-14h.8v14zm4-19v-.9h6.8v1zm7 0v-.9h6.8v1zm7 0v-.9h6.8v1zm10 19v-14h.8v14zm35 0v-14h.8v14zm28 0v-14h.8v14zm175 0v-14h.8v14zm28 0v-14h.8v14zm35 0v-14h.8v14zm28 0v-14h.8v14zm175 0v-14h.8v14zm28 0v-14h.8v14z"/>
  <path d="M234.7 111.3v6h-.8v-6h-3v-.9h3v-7.1h.8v7.1h3v1zm3.2 0v-.9h6.8v1zm7 0v-.9h6.8v1zm7 0v-.9h6.8v1zm7 0v-.9h6.8v1zm11.3-1.6q.8.2 1.2.8.4.5.4 1.3 0 1-.7 1.7-.8.7-2.1.7l-1.1-.1-1.2-.3v-1.1l1.1.4 1 .1q1 0 1.4-.4.5-.4.5-1.1 0-.7-.5-1.1-.4-.4-1.3-.4h-.8v-1h.8q.8 0 1.2-.3.4-.3.4-.9 0-.6-.4-1-.3-.3-1-.3l-1 .2q-.6 0-1.1.3v-1l1.1-.3h1q1.1 0 1.8.5.7.6.7 1.6 0 .6-.4 1-.3.5-1 .7zm2.7 1.6v-.9h6.8v1zm7 0v-.9h6.8v1zm7.1 3.1V108l6.6 3.2zm9.9 2.9v-14h.8v14zm175 0v-14h.8v14zm28 0v-14h.8v14zm14 0v-14h.8v14zm21 0v-14h.8v14zm28 0v-6.9h3.8v1h-3v6zm4-6v-.9h6.8v1zm7 0v-.9h6.8v1zm7 0v-.9h6.8v1zm7 0v-.9h6.8v1zm7 0v-.9h6.8v1zm7 0v-.9h6.8v1zm7 0v-.9h6.8v1zm7 0v-.9h6.8v1zm7 0v-.9h6.8v1zm7 0v-.9h6.8v1zm7 0v-.9h6.8v1zm7 0v-.9h6.8v1zm7 0v-.9h6.8v1zm7 0v-.9h6.8v1zm7 0v-.9h6.8v1zm7 0v-.9h6.8v1zm7 0v-.9h6.8v1zm7 0v-.9h6.8v1zm7 0v-.9h6.8v1zm7 0v-.9h6.8v1zm7 0v-.9h6.8v1zm7 0v-.9h6.8v1zm7 0v-.9h6.8v1zm7 0v-.9h6.8v1zm10 6v-6h-3v-.9h3.8v7zm28 0v-14h.8v14z"/>
  <path d="M233.9 104.3v-14h.8v14zm35 0v-14h.8v14zm28 0v-14h.8v14zm175 0v-14h.8v14zm28 0v-14h.8v14zm35 0v-14h.8v14zm231 0v-14h.8v14zM76 84.5v.5h-4.3q0 1.2.5 1.8.5.5 1.5.5l1-.1 1-.5v1l-1 .3-1 .2q-1.5 0-2.2-.9-.8-.8-.8-2.3 0-1.4.7-2.3.8-.9 2.1-.9 1.1 0 1.8.8t.7 1.9zm-1-.3q0-.6-.4-1-.4-.5-1.1-.5-.8 0-1.2.4-.5.5-.5 1.1zm8.2-1-.6-.3-.8-.1q-.9 0-1.4.5-.5.6-.5 1.7v3h-1v-6h1v1.2q.3-.7.8-1 .5-.4 1.2-.4l.7.1.6.3zm1.3-1.2h1l1.8 5 1.8-5h1l-2.2 6h-1.2zm8.2 0h2.5v5.2h2v.8h-5v-.8h2v-4.4h-1.5zm1.5-2.3h1v1.2h-1zm9.5 8-.8.3q-.4.2-.9.2-1.4 0-2.2-.9-.8-.8-.8-2.3 0-1.5.8-2.3.8-.9 2.2-.9.5 0 .9.2.4 0 .8.3v1l-.8-.5-.9-.1q-1 0-1.4.6-.5.6-.5 1.7t.5 1.7q.5.6 1.4.6l1-.1.7-.5zm7.3-3.2v.5h-4.3q0 1.2.5 1.8.5.5 1.5.5l1-.1 1-.5v1l-1 .3-1 .2q-1.5 0-2.2-.9-.8-.8-.8-2.3 0-1.4.7-2.3.8-.9 2.1-.9 1.1 0 1.8.8t.7 1.9zm-1-.3q0-.6-.4-1-.4-.5-1.1-.5-.8 0-1.2.4-.5.5-.5 1.1zm12.3-3.2-1.1 4h2.3zm-.6-1h1.3l2.4 8h-1.1l-.6-2H121l-.6 2h-1.1zm10 7.7-.8.3q-.4.2-.9.2-1.4 0-2.2-.9-.8-.8-.8-2.3 0-1.5.8-2.3.8-.9 2.2-.9.5 0 .9.2.4 0 .8.3v1l-.8-.5-.9-.1q-1 0-1.4.6-.5.6-.5 1.7t.5 1.7q.5.6 1.4.6l1-.1.7-.5zm7 0-.8.3q-.4.2-.9.2-1.4 0-2.2-.9-.8-.8-.8-2.3 0-1.5.8-2.3.8-.9 2.2-.9.5 0 .9.2.4 0 .8.3v1l-.8-.5-.9-.1q-1 0-1.4.6-.5.6-.5 1.7t.5 1.7q.5.6 1.4.6l1-.1.7-.5zm4.6-5q-.7 0-1.1.6-.4.5-.4 1.7 0 1.1.4 1.7.4.6 1.1.6.8 0 1.2-.6.3-.6.3-1.7 0-1.2-.3-1.7-.4-.6-1.2-.6zm0-.9q1.3 0 2 .9.6.8.6 2.3 0 1.5-.7 2.3-.6.9-1.9.9-1.2 0-1.9-.9-.7-.8-.7-2.3 0-1.5.7-2.3.7-.9 2-.9zm4.7 3.9V82h1v3.7q0 .8.3 1.2.3.4 1 .4.6 0 1-.5t.4-1.4V82h1v6h-1v-.9q-.3.5-.8.8-.4.3-1 .3-1 0-1.4-.6-.5-.7-.5-1.9zm11.6-1.4V88h-1v-3.7q0-.8-.2-1.2-.3-.4-1-.4-.6 0-1 .5t-.4 1.4V88h-1v-6h1v.9q.3-.5.7-.8.5-.3 1.1-.3 1 0 1.4.6.4.6.4 1.9zm4.7-4V82h2.2v.8h-2.2V86q0 .7.3 1 .2.2.8.2h1.1v.8h-1.2q-1 0-1.5-.4-.5-.5-.5-1.6v-3.2h-1.6V82h1.6v-1.7zm41.6 11v-14h.8v14z"/>
  <path d="M233.9 91.3v-14h.8v14zm35 0v-14h.8v14zm28 0v-14h.8v14zM332.3 81l-1.1 4h2.3zm-.6-1h1.3l2.4 8h-1.1l-.6-2H331l-.6 2h-1.1zm10 7.7-.8.3q-.4.2-.9.2-1.4 0-2.2-.9-.8-.8-.8-2.3 0-1.5.8-2.3.8-.9 2.2-.9.5 0 .9.2.4 0 .8.3v1l-.8-.5-.9-.1q-1 0-1.4.6-.5.6-.5 1.7t.5 1.7q.5.6 1.4.6l1-.1.7-.5zm4.6-7.4V82h2.2v.8h-2.2V86q0 .7.3 1 .2.2.8.2h1.1v.8h-1.2q-1 0-1.5-.4-.5-.5-.5-1.6v-3.2h-1.6V82h1.6v-1.7zm5.4 1.7h2.5v5.2h2v.8h-5v-.8h2v-4.4h-1.5zm1.5-2.3h1v1.2h-1zm7.1 3q-.7 0-1.1.6-.4.5-.4 1.7 0 1.1.4 1.7.4.6 1.1.6.8 0 1.2-.6.3-.6.3-1.7 0-1.2-.3-1.7-.4-.6-1.2-.6zm0-.9q1.3 0 2 .9.6.8.6 2.3 0 1.5-.7 2.3-.6.9-1.9.9-1.2 0-1.9-.9-.7-.8-.7-2.3 0-1.5.7-2.3.7-.9 2-.9zm9.3 2.5V88h-1v-3.7q0-.8-.2-1.2-.3-.4-1-.4-.6 0-1 .5t-.4 1.4V88h-1v-6h1v.9q.3-.5.7-.8.5-.3 1.1-.3 1 0 1.4.6.4.6.4 1.9zm6.6-2.1v1l-.8-.4-.9-.1q-.7 0-1 .2-.3.2-.3.6 0 .5.2.6l1.2.4.4.1q.8.2 1.2.6.3.4.3 1 0 1-.6 1.5t-1.8.5l-.9-.1-1-.3v-1l1 .4 1 .1q.6 0 1-.2.3-.3.3-.8 0-.7-1.3-1h-.4q-.9-.2-1.2-.6-.4-.4-.4-1 0-1 .6-1.4.5-.5 1.6-.5l1 .1.8.3zM385 80h1l.8 6.5 1-4.3h1l1 4.3.8-6.5h1l-1.2 8h-1l-1-4.8-1.2 4.8h-1zm10.3 2.7q-.7 0-1.1.6-.4.5-.4 1.7 0 1.1.4 1.7.4.6 1.1.6.8 0 1.2-.6.3-.6.3-1.7 0-1.2-.3-1.7-.4-.6-1.2-.6zm0-.9q1.3 0 2 .9.6.8.6 2.3 0 1.5-.7 2.3-.6.9-1.9.9-1.2 0-1.9-.9-.7-.8-.7-2.3 0-1.5.7-2.3.7-.9 2-.9zm9.9 1.4-.6-.3-.8-.1q-.9 0-1.4.5-.5.6-.5 1.7v3h-1v-6h1v1.2q.3-.7.8-1 .5-.4 1.2-.4l.7.1.6.3zm2.1-3.6h1v4.9l2.6-2.5h1.2l-2.4 2.3 2.8 3.7h-1.3l-2.2-3.1-.7.7V88h-1zm11.4 0v.9h-1.1q-.5 0-.8.2-.2.2-.2.8v.5h2.1v.8h-2V88h-1v-5.2H414V82h1.7v-.4q0-1 .4-1.5.5-.5 1.4-.5zm5.2 6.2q0 .7.2 1 .3.4.7.4h1.2v.8h-1.3q-.9 0-1.3-.6-.5-.5-.5-1.6v-5.4h-1.6v-.8h2.6zm6.4-3.1q-.7 0-1.1.6-.4.5-.4 1.7 0 1.1.4 1.7.4.6 1.1.6.8 0 1.2-.6.3-.6.3-1.7 0-1.2-.3-1.7-.4-.6-1.2-.6zm0-.9q1.3 0 2 .9.6.8.6 2.3 0 1.5-.7 2.3-.6.9-1.9.9-1.2 0-1.9-.9-.7-.8-.7-2.3 0-1.5.7-2.3.7-.9 2-.9zm3.7.2h1l1 4.8.9-3h.8l.9 3 1-4.8h1l-1.4 6h-1l-.9-3.3-1 3.3h-.9zm37.9 9.3v-14h.8v14zm11-6v-.9h6.8v1zM501 81l-2.6 4.2h2.5zm-.2-1h1.2v5.2h1.1v.9h-1V88h-1.2v-2h-3.4v-1zm13.1 11.3v-6h-3v-.9h3v-7.1h.8v14zm21 0v-14h.8v14zm28-6v-8h.8v7.1h3v1zm4 0v-.9h6.8v1zm7 0v-.9h6.8v1zm7 0v-.9h6.8v1zm7 0v-.9h6.8v1zm7 0v-.9h6.8v1zm7 0v-.9h6.8v1zm7 0v-.9h6.8v1zm7 0v-.9h6.8v1zm7 0v-.9h6.8v1zm7 0v-.9h6.8v1zm7 0v-.9h6.8v1zm7 0v-.9h6.8v1zm7 0v-.9h6.8v1zm7 0v-.9h6.8v1zm7 0v-.9h6.8v1zm7 0v-.9h6.8v1zm7 0v-.9h6.8v1zm7 0v-.9h6.8v1zm7 0v-.9h6.8v1zm7 0v-.9h6.8v1zm7 0v-.9h6.8v1zm7 0v-.9h6.8v1zm7 0v-.9h6.8v1zm7 0v-.9h6.8v1zm7 0v-.9h3v-7.1h.8v8zm31 6v-14h.8v14zm-560-39v-14h.8v14z"/>
  <path d="M205.9 65.3v-14h.8v14z"/>
  <path d="M205.9 78.3v-14h.8v14zm4.1-19.2 6.6-3.2v6.5zm23.9 19.2v-14h.8v14zm35 0v-14h.8v14zm28 0v-14h.8v14zm175 0v-14h.8v14zm28 0v-14h.8v14zm35 0v-14h.8v14zm28 0v-14h.8v14zm175 0v-14h.8v14zm28 0v-14h.8v14zm-549-19v-.9h6.8v1zm7 0v-.9h6.8v1zM233 61h3.7v1h-4.9v-1l1.8-1.8 1-1.1.7-1 .2-1q0-.6-.4-1t-1-.4l-1 .2-1.2.6v-1.1l1-.4 1.1-.2q1.2 0 2 .7.6.6.6 1.6l-.2 1q-.2.5-.8 1.2l-.9 1L233 61zm4.9-1.7v-.9h6.8v1zm7 0v-.9h6.8v1zm7 0v-.9h6.8v1zm7 0v-.9h6.8v1z"/>
  <path d="M269.7 59.3v6h-.8v-6h-3v-.9h3v-7.1h.8v7.1h3v1zm3.2 0v-.9h6.8v1zm7 0v-.9h6.8v1zm7 0v-.9h6.8v1zm10 6v-14h.8v14zm175 0v-14h.8v14zm28 0v-14h.8v14zm14 0v-6.9h3.8v1h-3v6zm11-6v-.9h6.8v1zm10 6v-14h.8v14zm4-6v-.9h6.8v1zm14.1 3.1V56l6.6 3.2zm9.9 2.9v-14h.8v14zm35.4-4.3 1.9-7h1.1l-2.3 8h-1.3l-2.4-8h1.1zm5.4-5h2.5v5.2h2v.8h-5v-.8h2v-4.4h-1.5zm1.5-2.3h1v1.2h-1zm10 3.5-.6-.3-.8-.1q-.9 0-1.4.5-.5.6-.5 1.7v3h-1v-6h1v1.2q.3-.7.8-1 .5-.4 1.2-.4l.7.1.6.3zm4.1-2.9V56h2.2v.8h-2.2V60q0 .7.3 1 .2.2.8.2h1.1v.8h-1.2q-1 0-1.5-.4-.5-.5-.5-1.6v-3.2h-1.6V56h1.6v-1.7zm4.7 5.4V56h1v3.7q0 .8.3 1.2.3.4 1 .4.6 0 1-.5t.4-1.4V56h1v6h-1v-.9q-.3.5-.8.8-.4.3-1 .3-1 0-1.4-.6-.5-.7-.5-1.9zm9.8-.7h-.4q-.8 0-1.3.3-.4.3-.4.9 0 .5.3.8.4.3 1 .3.8 0 1.2-.5.5-.6.5-1.6V59zm1.9-.4V62h-1v-.9q-.3.5-.8.8-.5.3-1.2.3-.9 0-1.4-.6-.6-.5-.6-1.4 0-1 .7-1.5t2-.5h1.3V58q0-.7-.4-1-.3-.3-1.1-.3l-1 .1-1 .4v-1l1-.3h1q.7 0 1.3.2.5.2.8.6l.3.7v1.2zm5.2 1.2q0 .7.2 1 .3.4.7.4h1.2v.8h-1.3q-.9 0-1.3-.6-.5-.5-.5-1.6v-5.4h-1.6v-.8h2.6zm10.3-5.8h1.4l1.4 4 1.4-4h1.5v8h-1v-7l-1.5 4.1h-.8l-1.4-4.2V62h-1zm10.6 5h-.4q-.8 0-1.3.3-.4.3-.4.9 0 .5.3.8.4.3 1 .3.8 0 1.2-.5.5-.6.5-1.6V59zm1.9-.4V62h-1v-.9q-.3.5-.8.8-.5.3-1.2.3-.9 0-1.4-.6-.6-.5-.6-1.4 0-1 .7-1.5t2-.5h1.3V58q0-.7-.4-1-.3-.3-1.1-.3l-1 .1-1 .4v-1l1-.3h1q.7 0 1.3.2.5.2.8.6l.3.7v1.2zm7 3.1-.8.3q-.4.2-.9.2-1.4 0-2.2-.9-.8-.8-.8-2.3 0-1.5.8-2.3.8-.9 2.2-.9.5 0 .9.2.4 0 .8.3v1l-.8-.5-.9-.1q-1 0-1.4.6-.5.6-.5 1.7t.5 1.7q.5.6 1.4.6l1-.1.7-.5zm6.9-3.4V62h-1v-3.7q0-.8-.2-1.2-.3-.4-1-.4-.6 0-1 .5t-.4 1.4V62h-1v-8.4h1V57q.3-.5.8-.8.4-.3 1-.3 1 0 1.4.6.4.6.4 1.9zm3.1-2.3h2.5v5.2h2v.8h-5v-.8h2v-4.4h-1.5zm1.5-2.3h1v1.2h-1zm9.4 4.6V62h-1v-3.7q0-.8-.2-1.2-.3-.4-1-.4-.6 0-1 .5t-.4 1.4V62h-1v-6h1v.9q.3-.5.8-.8.4-.3 1-.3 1 0 1.4.6.4.6.4 1.9zm7.4.2v.5h-4.3q0 1.2.5 1.8.5.5 1.5.5l1-.1 1-.5v1l-1 .3-1 .2q-1.5 0-2.2-.9-.8-.8-.8-2.3 0-1.4.7-2.3.8-.9 2.1-.9 1.1 0 1.8.8t.7 1.9zm-1-.3q0-.6-.4-1-.4-.5-1.1-.5-.8 0-1.2.4-.5.5-.5 1.1zm39.9 7.1v-14h.8v14zm28 0v-14h.8v14zm-532-13v-14h.8v14z"/>
  <path d="M268.9 52.3v-14h.8v14zm28 0v-14h.8v14zm175 0v-14h.8v14zm28 0v-14h.8v14zm35 0v-14h.8v14zm28 0v-14h.8v14zm175 0v-14h.8v14zm28 0v-14h.8v14zm-731-19v-.9h6.8v1zm7 0v-.9h6.8v1zm7 0v-.9h6.8v1zm7 0v-.9h6.8v1zm7 0v-.9h6.8v1zm7 0v-.9h6.8v1zm7 0v-.9h6.8v1zm7 0v-.9h6.8v1zm7 0v-.9h6.8v1zm7 0v-.9h6.8v1zm7 0v-.9h6.8v1zm7 0v-.9h6.8v1zm7 0v-.9h6.8v1zm7 0v-.9h6.8v1zm7 0v-.9h6.8v1zm7 0v-.9h6.8v1zm7 0v-.9h6.8v1zm7 0v-.9h6.8v1zm7 0v-.9h6.8v1zm7 0v-.9h6.8v1zm7 0v-.9h6.8v1zm7 0v-.9h6.8v1zm7 0v-.9h6.8v1zm7 0v-.9h6.8v1zm10 6v-6h-3v-.9h3.8v7zm28 0v-14h.8v14z"/>
  <path d="M268.9 39.3v-14h.8v14zm28 0v-6.9h3.8v1h-3v6zm4-6v-.9h6.8v1zm7 0v-.9h6.8v1zm7 0v-.9h6.8v1zm7 0v-.9h6.8v1zm7 0v-.9h6.8v1zm7 0v-.9h6.8v1zm7 0v-.9h6.8v1zm7 0v-.9h6.8v1zm7 0v-.9h6.8v1zm7 0v-.9h6.8v1zm7 0v-.9h6.8v1zm7 0v-.9h6.8v1zm7 0v-.9h6.8v1zm7 0v-.9h6.8v1zm7 0v-.9h6.8v1zm7 0v-.9h6.8v1zm7 0v-.9h6.8v1zm7 0v-.9h6.8v1zm7 0v-.9h6.8v1zm7 0v-.9h6.8v1zm7 0v-.9h6.8v1zm7 0v-.9h6.8v1zm7 0v-.9h6.8v1zm7 0v-.9h6.8v1zm10 6v-6h-3v-.9h3.8v7zm28 0v-14h.8v14zm35 0v-14h.8v14zm28 0v-6.9h3.8v1h-3v6zm4-6v-.9h6.8v1zm7 0v-.9h6.8v1zm7 0v-.9h6.8v1zm7 0v-.9h6.8v1zm7 0v-.9h6.8v1zm7 0v-.9h6.8v1zm7 0v-.9h6.8v1zm7 0v-.9h6.8v1zm7 0v-.9h6.8v1zm7 0v-.9h6.8v1zm7 0v-.9h6.8v1zm7 0v-.9h6.8v1zm7 0v-.9h6.8v1zm7 0v-.9h6.8v1zm7 0v-.9h6.8v1zm7 0v-.9h6.8v1zm7 0v-.9h6.8v1zm7 0v-.9h6.8v1zm7 0v-.9h6.8v1zm7 0v-.9h6.8v1zm7 0v-.9h6.8v1zm7 0v-.9h6.8v1zm7 0v-.9h6.8v1zm7 0v-.9h6.8v1zm10 6v-6h-3v-.9h3.8v7zm28 0v-14h.8v14zm-532-13v-14h.8v14z"/>
  <path d="M268.9 26.3v-14h.8v14zm231 0v-14h.8v14zm35 0v-14h.8v14zm231 0v-14h.8v14zm-759-19v-.9h6.8v1zm7 0v-.9h6.8v1zm7 0v-.9h6.8v1zm7 0v-.9h6.8v1zm7 0v-.9h6.8v1zm7 0v-.9h6.8v1zm7 0v-.9h6.8v1zm7 0v-.9h6.8v1zm7 0v-.9h6.8v1zm7 0v-.9h6.8v1zm7 0v-.9h6.8v1zm7 0v-.9h6.8v1zm7 0v-.9h6.8v1zm7 0v-.9h6.8v1zm7 0v-.9h6.8v1zm7 0v-.9h6.8v1zm7 0v-.9h6.8v1zm7 0v-.9h6.8v1zm7 0v-.9h6.8v1zm7 0v-.9h6.8v1zm7 0v-.9h6.8v1zm7 0v-.9h6.8v1zm7 0v-.9h6.8v1zm7 0v-.9h6.8v1zm7 0v-.9h6.8v1zm7 0v-.9h6.8v1zm7 0v-.9h6.8v1zm7 0v-.9h6.8v1zm7 0v-.9h6.8v1zm7 0v-.9h6.8v1zm7 0v-.9h6.8v1zm7 0v-.9h6.8v1zm10 6v-6h-3v-.9h3.8v7z"/>
  <path d="M268.9 13.3V6.4h3.8v1h-3v6zm4-6v-.9h6.8v1zm7 0v-.9h6.8v1zm7 0v-.9h6.8v1zm7 0v-.9h6.8v1zm7 0v-.9h6.8v1zm7 0v-.9h6.8v1zm7 0v-.9h6.8v1zm7 0v-.9h6.8v1zm7 0v-.9h6.8v1zm7 0v-.9h6.8v1zm7 0v-.9h6.8v1zm7 0v-.9h6.8v1zm7 0v-.9h6.8v1zm7 0v-.9h6.8v1zm7 0v-.9h6.8v1zm7 0v-.9h6.8v1zm7 0v-.9h6.8v1zm7 0v-.9h6.8v1zm7 0v-.9h6.8v1zm7 0v-.9h6.8v1zm7 0v-.9h6.8v1zm7 0v-.9h6.8v1zm7 0v-.9h6.8v1zm7 0v-.9h6.8v1zm7 0v-.9h6.8v1zm7 0v-.9h6.8v1zm7 0v-.9h6.8v1zm7 0v-.9h6.8v1zm7 0v-.9h6.8v1zm7 0v-.9h6.8v1zm7 0v-.9h6.8v1zm7 0v-.9h6.8v1zm10 6v-6h-3v-.9h3.8v7zm35 0V6.4h3.8v1h-3v6zm4-6v-.9h6.8v1zm7 0v-.9h6.8v1zm7 0v-.9h6.8v1zm7 0v-.9h6.8v1zm7 0v-.9h6.8v1zm7 0v-.9h6.8v1zm7 0v-.9h6.8v1zm7 0v-.9h6.8v1zm7 0v-.9h6.8v1zm7 0v-.9h6.8v1zm7 0v-.9h6.8v1zm7 0v-.9h6.8v1zm7 0v-.9h6.8v1zm7 0v-.9h6.8v1zm7 0v-.9h6.8v1zm7 0v-.9h6.8v1zm7 0v-.9h6.8v1zm7 0v-.9h6.8v1zm7 0v-.9h6.8v1zm7 0v-.9h6.8v1zm7 0v-.9h6.8v1zm7 0v-.9h6.8v1zm7 0v-.9h6.8v1zm7 0v-.9h6.8v1zm7 0v-.9h6.8v1zm7 0v-.9h6.8v1zm7 0v-.9h6.8v1zm7 0v-.9h6.8v1zm7 0v-.9h6.8v1zm7 0v-.9h6.8v1zm7 0v-.9h6.8v1zm7 0v-.9h6.8v1zm10 6v-6h-3v-.9h3.8v7z"/>
</svg>
