<svg xmlns="http://www.w3.org/2000/svg" viewBox="0 0 806 430">
  <style>
    path {
      fill: #333;
      stroke: #333;
      stroke-width: 0.5;
    }

    @media (prefers-color-scheme: dark) {
      path {
        fill: #ccc;
        stroke: #ccc;
      }
    }
  </style>

  <path d="M1.3 171H6v.9H2.3v2.1h3.3v1H2.3v4h-1z"/>
  <path d="M37.9 195.3v-14h.8v14z"/>
  <path d="M37.9 208.3v-14h.8v14z"/>
  <path d="M37.9 221.3v-14h.8v14z"/>
  <path d="M37.9 234.3v-14h.8v14z"/>
  <path d="M37.9 247.3v-14h.8v14z"/>
  <path d="M37.9 260.3v-14h.8v14z"/>
  <path d="M37.9 273.3v-14h.8v14z"/>
  <path d="M37.9 286.3v-14h.8v14z"/>
  <path d="M37.9 299.3v-14h.8v14z"/>
  <path d="M37.9 312.3v-14h.8v14z"/>
  <path d="M37.9 325.3v-14h.8v14z"/>
  <path d="M37.9 338.3v-14h.8v14z"/>
  <path d="M37.9 351.3v-14h.8v14z"/>
  <path d="M37.9 364.3v-14h.8v14z"/>
  <path d="M37.9 377.3v-14h.8v14z"/>
  <path d="M37.9 390.3v-14h.8v14z"/>
  <path d="M37.9 403.3v-14h.8v14z"/>
  <path d="M37.9 416.3v-14h.8v14z"/>
  <path d="M37.9 423.3v-8h.8v7.1h3v1zm4 0v-.9h6.8v1zm7 0v-.9h6.8v1zm7 0v-.9h6.8v1zm7 0v-.9h6.8v1zm7 0v-.9h6.8v1zm7 0v-.9h6.8v1zm7 0v-.9h6.8v1zm7 0v-.9h6.8v1zm7 0v-.9h6.8v1zm7 0v-.9h6.8v1zm7 0v-.9h6.8v1zm7 0v-.9h6.8v1zm7 0v-.9h6.8v1zm7 0v-.9h6.8v1zm7 0v-.9h6.8v1zm7 0v-.9h6.8v1zm7 0v-.9h6.8v1zm7 0v-.9h6.8v1zm7 0v-.9h6.8v1zm7 0v-.9h6.8v1zm7 0v-.9h6.8v1zm7 0v-.9h6.8v1zm7 0v-.9h6.8v1zm7 0v-.9h6.8v1zm7 0v-.9h6.8v1zm7 0v-.9h6.8v1zm7 0v-.9h6.8v1zm7 0v-.9h6.8v1zm7 0v-.9h6.8v1zm7 0v-.9h6.8v1zm7 0v-.9h6.8v1zm7 0v-.9h6.8v1zm7 0v-.9h3v-7.1h.8v8z"/>
  <path d="m55 412.3-1 .6q-.6.3-1.2.3-1.6 0-2.4-1.1-.9-1.1-.9-3.1t1-3q.8-1.2 2.3-1.2l1 .2.9.4v1.1l-1-.6q-.4-.2-.9-.2-1 0-1.6.8-.5.9-.5 2.5 0 1.7.5 2.5t1.6.8l.6-.1q.3 0 .5-.3v-2.1h-1.2v-1H55zm4.3-4.6q-.7 0-1.1.6-.4.5-.4 1.7 0 1.1.4 1.7.4.6 1.1.6.8 0 1.2-.6.3-.6.3-1.7 0-1.2-.3-1.7-.4-.6-1.2-.6zm0-.9q1.3 0 2 .9.6.8.6 2.3 0 1.5-.7 2.3-.6.9-1.9.9-1.2 0-1.9-.9-.7-.8-.7-2.3 0-1.5.7-2.3.7-.9 2-.9zm7 .9q-.7 0-1.1.6-.4.5-.4 1.7 0 1.1.4 1.7.4.6 1.1.6.8 0 1.2-.6.3-.6.3-1.7 0-1.2-.3-1.7-.4-.6-1.2-.6zm0-.9q1.3 0 2 .9.6.8.6 2.3 0 1.5-.7 2.3-.6.9-1.9.9-1.2 0-1.9-.9-.7-.8-.7-2.3 0-1.5.7-2.3.7-.9 2-.9zm8.3 3.2q0-1.2-.4-1.7-.3-.6-1-.6t-1.1.6q-.4.5-.4 1.6 0 1.2.4 1.7.4.6 1.1.6.7 0 1-.6.4-.5.4-1.7zm1 2.6q0 1.4-.6 2-.7.8-2 .8l-.8-.1-.9-.2v-1l1 .4h.8q.8 0 1.1-.4.4-.4.4-1.3v-.8q-.2.5-.6.8-.4.2-1 .2-1 0-1.7-.8-.6-.8-.6-2.3 0-1.4.6-2.2.6-.9 1.7-.9.6 0 1 .3.4.2.6.7v-.8h1zm5.3-1.8q0 .7.2 1 .3.4.7.4H83v.8h-1.3q-.9 0-1.3-.6-.5-.5-.5-1.6v-5.4h-1.6v-.8h2.6zm9.1-1.3v.5h-4.3q0 1.2.5 1.8.5.5 1.5.5l1-.1 1-.5v1l-1 .3-1 .2q-1.5 0-2.2-.9-.8-.8-.8-2.3 0-1.4.7-2.3.8-.9 2.1-.9 1.1 0 1.8.8t.7 1.9zm-1-.3q0-.6-.4-1-.4-.5-1.1-.5-.8 0-1.2.4-.5.5-.5 1.1zm14.8 3.5-.9.3q-.4.2-1 .2-1.5 0-2.3-1.1-.9-1.1-.9-3.1t.9-3q.9-1.2 2.4-1.2l1 .1.8.4v1l-.9-.4q-.4-.2-1-.2-1 0-1.5.8t-.5 2.5q0 1.6.5 2.5.5.8 1.6.8l1-.2.8-.5zm5.1-1.9q0 .7.2 1 .3.4.7.4h1.2v.8h-1.3q-.9 0-1.3-.6-.5-.5-.5-1.6v-5.4h-1.6v-.8h2.6zm6.4-3.1q-.7 0-1.1.6-.4.5-.4 1.7 0 1.1.4 1.7.4.6 1.1.6.8 0 1.2-.6.3-.6.3-1.7 0-1.2-.3-1.7-.4-.6-1.2-.6zm0-.9q1.3 0 2 .9.6.8.6 2.3 0 1.5-.7 2.3-.6.9-1.9.9-1.2 0-1.9-.9-.7-.8-.7-2.3 0-1.5.7-2.3.7-.9 2-.9zm4.7 3.9V407h1v3.7q0 .8.3 1.2.3.4 1 .4.6 0 1-.5t.4-1.4V407h1v6h-1v-.9q-.3.5-.8.8-.4.3-1 .3-1 0-1.4-.6-.5-.7-.5-1.9zm10.6-2.9v-3.2h1v8.4h-1v-.8q-.2.5-.6.7-.5.3-1 .3-1 0-1.7-.9-.6-.8-.6-2.3 0-1.5.6-2.3.6-.9 1.7-.9.5 0 1 .3.4.2.6.7zm-2.9 2.2q0 1.1.4 1.7.3.6 1 .6.8 0 1.1-.6.4-.6.4-1.7t-.4-1.7q-.3-.6-1-.6-.8 0-1.1.6-.4.5-.4 1.7z"/>
  <path d="M268.9 416.3v-14h.8v14z"/>
  <path d="M65.9 221.3v-6.9h3.8v1h-3v6z"/>
  <path d="M65.9 234.3v-14h.8v14z"/>
  <path d="M65.9 247.3v-14h.8v14z"/>
  <path d="M65.9 260.3v-14h.8v14z"/>
  <path d="M65.9 267.3v-8h.8v7.1h3v1zm0 71v-6.9h3.8v1h-3v6z"/>
  <path d="M65.9 351.3v-14h.8v14z"/>
  <path d="M65.9 364.3v-14h.8v14z"/>
  <path d="M65.9 377.3v-14h.8v14z"/>
  <path d="M65.9 384.3v-8h.8v7.1h3v1z"/>
  <path d="M268.9 403.3v-14h.8v14z"/>
  <path d="M69.9 384.3v-.9h6.8v1zm7 0v-.9h6.8v1zm7 0v-.9h6.8v1zm7 0v-.9h6.8v1zm7 0v-.9h6.8v1zm7 0v-.9h6.8v1zm7 0v-.9h6.8v1zm7 0v-.9h6.8v1zm7 0v-.9h6.8v1zm7 0v-.9h6.8v1zm7 0v-.9h6.8v1zm7 0v-.9h6.8v1zm7 0v-.9h6.8v1zm7 0v-.9h6.8v1zm7 0v-.9h6.8v1zm7 0v-.9h6.8v1zm7 0v-.9h6.8v1zm7 0v-.9h6.8v1zm7 0v-.9h6.8v1zm7 0v-.9h6.8v1zm7 0v-.9h6.8v1zm7 0v-.9h6.8v1zm7 0v-.9h6.8v1zm7 0v-.9h6.8v1zm7 0v-.9h3v-7.1h.8v8z"/>
  <path d="M268.9 390.3v-14h.8v14z"/>
  <path d="M293.9 384.3v-.9h6.8v1zm14 0v-.9h6.8v1zm14.1 3.1V381l6.6 3.2zm18.9-4.4q0-1.8-.4-2.5-.4-.8-1.2-.8-.8 0-1.2.8-.3.7-.3 2.5t.3 2.5q.4.8 1.2.8.8 0 1.2-.8.4-.7.4-2.5zm1 0q0 2-.6 3.1-.6 1-2 1t-2-1q-.7-1-.7-3.1t.7-3.1q.7-1 2-1 1.4 0 2 1 .7 1 .7 3.1zm4.4-3-1.1 4h2.3zm-.6-1h1.3l2.4 8h-1.1l-.6-2H345l-.6 2h-1.1zm5.3 5.7V381h1v3.7q0 .8.3 1.2.3.4 1 .4.6 0 1-.5t.4-1.4V381h1v6h-1v-.9q-.3.5-.8.8-.4.3-1 .3-1 0-1.4-.6-.5-.7-.5-1.9zm9.3-5.4v1.7h2.2v.8h-2.2v3.2q0 .7.3 1 .2.2.8.2h1.1v.8h-1.2q-1 0-1.5-.4-.5-.5-.5-1.6v-3.2h-1.6v-.8h1.6v-1.7zm9.3 4v3.7h-1v-3.7q0-.8-.2-1.2-.3-.4-1-.4-.6 0-1 .5t-.4 1.4v3.4h-1v-8.4h1v3.3q.3-.5.7-.8.5-.3 1.1-.3 1 0 1.4.6.4.6.4 1.9zM380 386h3.7v1h-4.9v-1l1.8-1.8 1-1.1.7-1 .2-1q0-.6-.4-1t-1-.4l-1 .2-1.2.6v-1.1l1-.4 1.1-.2q1.2 0 2 .7.6.6.6 1.6l-.2 1q-.2.5-.8 1.2l-.9 1-1.7 1.8zm7-1.2h2v2.2h-2zm8.3-5.9q1.3 0 2 1 .6 1 .6 3.1 0 2-.6 3.1-.7 1-2 1t-2-1q-.6-1-.6-3 0-2.1.7-3.2.6-1 2-1zm0 7.4q.8 0 1.1-.8.4-.8.4-2.5v-1.6l-2.6 4q.4.9 1.1.9zm0-6.6q-.7 0-1.1.8-.4.8-.4 2.5l.1 1.4 2.5-4q-.4-.7-1-.7zm14 .3-1.1 4h2.3zm-.6-1h1.3l2.4 8h-1.1l-.6-2H408l-.6 2h-1.1zm10 7.7-.8.3q-.4.2-.9.2-1.4 0-2.2-.9-.8-.8-.8-2.3 0-1.5.8-2.3.8-.9 2.2-.9.5 0 .9.2.4 0 .8.3v1l-.8-.5-.9-.1q-1 0-1.4.6-.5.6-.5 1.7t.5 1.7q.5.6 1.4.6l1-.1.7-.5zm7 0-.8.3q-.4.2-.9.2-1.4 0-2.2-.9-.8-.8-.8-2.3 0-1.5.8-2.3.8-.9 2.2-.9.5 0 .9.2.4 0 .8.3v1l-.8-.5-.9-.1q-1 0-1.4.6-.5.6-.5 1.7t.5 1.7q.5.6 1.4.6l1-.1.7-.5zm7.3-3.2v.5h-4.3q0 1.2.5 1.8.5.5 1.5.5l1-.1 1-.5v1l-1 .3-1 .2q-1.5 0-2.2-.9-.8-.8-.8-2.3 0-1.4.7-2.3.8-.9 2.1-.9 1.1 0 1.8.8t.7 1.9zm-1-.3q0-.6-.4-1-.4-.5-1.1-.5-.8 0-1.2.4-.5.5-.5 1.1zm7.2-2v1l-.8-.4-.9-.1q-.7 0-1 .2-.3.2-.3.6 0 .5.2.6l1.2.4.4.1q.8.2 1.2.6.3.4.3 1 0 1-.6 1.5t-1.8.5l-.9-.1-1-.3v-1l1 .4 1 .1q.6 0 1-.2.3-.3.3-.8 0-.7-1.3-1h-.4q-.9-.2-1.2-.6-.4-.4-.4-1 0-1 .6-1.4.5-.5 1.6-.5l1 .1.8.3zm7 0v1l-.8-.4-.9-.1q-.7 0-1 .2-.3.2-.3.6 0 .5.2.6l1.2.4.4.1q.8.2 1.2.6.3.4.3 1 0 1-.6 1.5t-1.8.5l-.9-.1-1-.3v-1l1 .4 1 .1q.6 0 1-.2.3-.3.3-.8 0-.7-1.3-1h-.4q-.9-.2-1.2-.6-.4-.4-.4-1 0-1 .6-1.4.5-.5 1.6-.5l1 .1.8.3zm9.1-2.2h6v.9H459v7.1h-1.1v-7.1h-2.5zm10 2.7q-.7 0-1.1.6-.4.5-.4 1.7 0 1.1.4 1.7.4.6 1.1.6.8 0 1.2-.6.3-.6.3-1.7 0-1.2-.3-1.7-.4-.6-1.2-.6zm0-.9q1.3 0 2 .9.6.8.6 2.3 0 1.5-.7 2.3-.6.9-1.9.9-1.2 0-1.9-.9-.7-.8-.7-2.3 0-1.5.7-2.3.7-.9 2-.9zm5-2.2h1v4.9l2.6-2.5h1.2l-2.4 2.3 2.8 3.7h-1.3l-2.2-3.1-.7.7v2.4h-1zm11.7 4.9v.5h-4.3q0 1.2.5 1.8.5.5 1.5.5l1-.1 1-.5v1l-1 .3-1 .2q-1.5 0-2.2-.9-.8-.8-.8-2.3 0-1.4.7-2.3.8-.9 2.1-.9 1.1 0 1.8.8t.7 1.9zm-1-.3q0-.6-.4-1-.4-.5-1.1-.5-.8 0-1.2.4-.5.5-.5 1.1zm7.6.1v3.7h-1v-3.7q0-.8-.2-1.2-.3-.4-1-.4-.6 0-1 .5t-.4 1.4v3.4h-1v-6h1v.9q.3-.5.7-.8.5-.3 1.1-.3 1 0 1.4.6.4.6.4 1.9zm-385.2-30v1l-1-.4-1-.2q-.7 0-1.2.4-.4.3-.4 1 0 .5.3.7.3.3 1 .5l.6.1q1.2.3 1.7.9.5.5.5 1.5 0 1.2-.7 1.8-.7.6-2 .6l-1.2-.2q-.6 0-1.2-.3v-1.2l1.2.6 1.1.2q.8 0 1.3-.4t.5-1q0-.6-.4-1-.3-.3-1-.4l-.6-.2q-1.1-.2-1.6-.7-.6-.5-.6-1.4 0-1 .8-1.7.7-.7 1.9-.7l1 .1 1 .4zm137.5 24v-14h.8v14z"/>
  <path d="M268.9 377.3v-14h.8v14z"/>
  <path d="M289.9 377.3v-14h.8v14zM111 357.5v.5h-4.3q0 1.2.5 1.8.5.5 1.5.5l1-.1 1-.5v1l-1 .3-1 .2q-1.5 0-2.2-.9-.8-.8-.8-2.3 0-1.4.7-2.3.8-.9 2.1-.9 1.1 0 1.8.8t.7 1.9zm-1-.3q0-.6-.4-1-.4-.5-1.1-.5-.8 0-1.2.4-.5.5-.5 1.1zm8.2-1-.6-.3-.8-.1q-.9 0-1.4.5-.5.6-.5 1.7v3h-1v-6h1v1.2q.3-.7.8-1 .5-.4 1.2-.4l.7.1.6.3zm1.3-1.2h1l1.8 5 1.8-5h1l-2.2 6h-1.2zm8.2 0h2.5v5.2h2v.8h-5v-.8h2v-4.4h-1.5zm1.5-2.3h1v1.2h-1zm9.5 8-.8.3q-.4.2-.9.2-1.4 0-2.2-.9-.8-.8-.8-2.3 0-1.5.8-2.3.8-.9 2.2-.9.5 0 .9.2.4 0 .8.3v1l-.8-.5-.9-.1q-1 0-1.4.6-.5.6-.5 1.7t.5 1.7q.5.6 1.4.6l1-.1.7-.5zm7.3-3.2v.5h-4.3q0 1.2.5 1.8.5.5 1.5.5l1-.1 1-.5v1l-1 .3-1 .2q-1.5 0-2.2-.9-.8-.8-.8-2.3 0-1.4.7-2.3.8-.9 2.1-.9 1.1 0 1.8.8t.7 1.9zm-1-.3q0-.6-.4-1-.4-.5-1.1-.5-.8 0-1.2.4-.5.5-.5 1.1zm12.3-3.2-1.1 4h2.3zm-.6-1h1.3l2.4 8h-1.1l-.6-2H156l-.6 2h-1.1zm10 7.7-.8.3q-.4.2-.9.2-1.4 0-2.2-.9-.8-.8-.8-2.3 0-1.5.8-2.3.8-.9 2.2-.9.5 0 .9.2.4 0 .8.3v1l-.8-.5-.9-.1q-1 0-1.4.6-.5.6-.5 1.7t.5 1.7q.5.6 1.4.6l1-.1.7-.5zm7 0-.8.3q-.4.2-.9.2-1.4 0-2.2-.9-.8-.8-.8-2.3 0-1.5.8-2.3.8-.9 2.2-.9.5 0 .9.2.4 0 .8.3v1l-.8-.5-.9-.1q-1 0-1.4.6-.5.6-.5 1.7t.5 1.7q.5.6 1.4.6l1-.1.7-.5zm4.6-5q-.7 0-1.1.6-.4.5-.4 1.7 0 1.1.4 1.7.4.6 1.1.6.8 0 1.2-.6.3-.6.3-1.7 0-1.2-.3-1.7-.4-.6-1.2-.6zm0-.9q1.3 0 2 .9.6.8.6 2.3 0 1.5-.7 2.3-.6.9-1.9.9-1.2 0-1.9-.9-.7-.8-.7-2.3 0-1.5.7-2.3.7-.9 2-.9zm4.7 3.9V355h1v3.7q0 .8.3 1.2.3.4 1 .4.6 0 1-.5t.4-1.4V355h1v6h-1v-.9q-.3.5-.8.8-.4.3-1 .3-1 0-1.4-.6-.5-.7-.5-1.9zm11.6-1.4v3.7h-1v-3.7q0-.8-.2-1.2-.3-.4-1-.4-.6 0-1 .5t-.4 1.4v3.4h-1v-6h1v.9q.3-.5.7-.8.5-.3 1.1-.3 1 0 1.4.6.4.6.4 1.9zm4.7-4v1.7h2.2v.8h-2.2v3.2q0 .7.3 1 .2.2.8.2h1.1v.8h-1.2q-1 0-1.5-.4-.5-.5-.5-1.6v-3.2h-1.6v-.8h1.6v-1.7zm41.6 11v-14h.8v14z"/>
  <path d="M268.9 364.3v-14h.8v14zm35-6v-8h.8v7.1h3v1zm4 0v-.9h6.8v1zm7 0v-.9h6.8v1zm7 0v-.9h6.8v1zm7 0v-.9h6.8v1zm7 0v-.9h6.8v1zm7 0v-.9h6.8v1zm7 0v-.9h6.8v1zm7 0v-.9h6.8v1zm7 0v-.9h6.8v1zm7 0v-.9h6.8v1zm7 0v-.9h6.8v1zm7 0v-.9h6.8v1zm7 0v-.9h6.8v1zm7 0v-.9h6.8v1zm7 0v-.9h6.8v1zm7 0v-.9h6.8v1zm7 0v-.9h6.8v1zm7 0v-.9h6.8v1zm7 0v-.9h6.8v1zm7 0v-.9h6.8v1zm7 0v-.9h6.8v1zm7 0v-.9h6.8v1zm7 0v-.9h6.8v1zm7 0v-.9h6.8v1zm7 0v-.9h6.8v1zm7 0v-.9h6.8v1zm7 0v-.9h6.8v1zm7 0v-.9h6.8v1zm7 0v-.9h6.8v1zm7 0v-.9h6.8v1zm7 0v-.9h6.8v1zm7 0v-.9h6.8v1zm7 0v-.9h3v-7.1h.8v8zm38 0v-8h.8v7.1h3v1zm4 0v-.9h6.8v1zm7 0v-.9h6.8v1zm7 0v-.9h6.8v1zm7 0v-.9h6.8v1zm7 0v-.9h6.8v1zm7 0v-.9h6.8v1zm7 0v-.9h6.8v1zm7 0v-.9h6.8v1zm7 0v-.9h6.8v1zm7 0v-.9h6.8v1zm7 0v-.9h6.8v1zm7 0v-.9h6.8v1zm7 0v-.9h6.8v1zm7 0v-.9h6.8v1zm7 0v-.9h6.8v1zm7 0v-.9h6.8v1zm7 0v-.9h6.8v1zm7 0v-.9h6.8v1zm7 0v-.9h6.8v1zm7 0v-.9h6.8v1zm7 0v-.9h6.8v1zm7 0v-.9h6.8v1zm7 0v-.9h6.8v1zm7 0v-.9h6.8v1zm7 0v-.9h6.8v1zm7 0v-.9h6.8v1zm7 0v-.9h6.8v1zm7 0v-.9h6.8v1zm7 0v-.9h6.8v1zm7 0v-.9h6.8v1zm7 0v-.9h6.8v1zm7 0v-.9h6.8v1zm7 0v-.9h3v-7.1h.8v8z"/>
  <path d="M240.9 351.3v-14h.8v14z"/>
  <path d="M268.9 351.3v-14h.8v14z"/>
  <path d="M289.9 351.3v-14h.8v14z"/>
  <path d="M303.9 351.3v-14h.8v14z"/>
  <path d="m321 347.3-1 .6q-.6.3-1.2.3-1.6 0-2.4-1.1-.9-1.1-.9-3.1t1-3q.8-1.2 2.3-1.2l1 .2.9.4v1.1l-1-.6q-.4-.2-.9-.2-1 0-1.6.8-.5.9-.5 2.5 0 1.7.5 2.5t1.6.8l.6-.1q.3 0 .5-.3v-2.1h-1.2v-1h2.2zm2.7-5.3h2.5v5.2h2v.8h-5v-.8h2v-4.4h-1.5zm1.5-2.3h1v1.2h-1zm7.1.6v1.7h2.2v.8h-2.2v3.2q0 .7.3 1 .2.2.8.2h1.1v.8h-1.2q-1 0-1.5-.4-.5-.5-.5-1.6v-3.2h-1.6v-.8h1.6v-1.7zm4.4-.3h1.1v3h3v-3h1v8h-1v-4h-3v4h-1zm7.3 5.7V342h1v3.7q0 .8.3 1.2.3.4 1 .4.6 0 1-.5t.4-1.4V342h1v6h-1v-.9q-.3.5-.8.8-.4.3-1 .3-1 0-1.4-.6-.5-.7-.5-1.9zm11-.7q0-1.2-.4-1.7-.4-.6-1.1-.6-.7 0-1.1.6-.4.6-.4 1.7t.4 1.7q.4.6 1 .6.8 0 1.2-.6.3-.6.3-1.7zm-3-2.2q.3-.5.7-.7.4-.3 1-.3 1 0 1.6.9.7.8.7 2.3 0 1.5-.7 2.3-.6.9-1.7.9-.5 0-1-.3l-.6-.7v.8h-1v-8.4h1z"/>
  <path d="M534.9 351.3v-14h.8v14zm35 0v-14h.8v14z"/>
  <path d="m587 347.3-1 .6q-.6.3-1.2.3-1.6 0-2.4-1.1-.9-1.1-.9-3.1t1-3q.8-1.2 2.3-1.2l1 .2.9.4v1.1l-1-.6q-.4-.2-.9-.2-1 0-1.6.8-.5.9-.5 2.5 0 1.7.5 2.5t1.6.8l.6-.1q.3 0 .5-.3v-2.1h-1.2v-1h2.2zm4.3-4.6q-.7 0-1.1.6-.4.5-.4 1.7 0 1.1.4 1.7.4.6 1.1.6.8 0 1.2-.6.3-.6.3-1.7 0-1.2-.3-1.7-.4-.6-1.2-.6zm0-.9q1.3 0 2 .9.6.8.6 2.3 0 1.5-.7 2.3-.6.9-1.9.9-1.2 0-1.9-.9-.7-.8-.7-2.3 0-1.5.7-2.3.7-.9 2-.9zm7 .9q-.7 0-1.1.6-.4.5-.4 1.7 0 1.1.4 1.7.4.6 1.1.6.8 0 1.2-.6.3-.6.3-1.7 0-1.2-.3-1.7-.4-.6-1.2-.6zm0-.9q1.3 0 2 .9.6.8.6 2.3 0 1.5-.7 2.3-.6.9-1.9.9-1.2 0-1.9-.9-.7-.8-.7-2.3 0-1.5.7-2.3.7-.9 2-.9zm8.3 3.2q0-1.2-.4-1.7-.3-.6-1-.6t-1.1.6q-.4.5-.4 1.6 0 1.2.4 1.7.4.6 1.1.6.7 0 1-.6.4-.5.4-1.7zm1 2.6q0 1.4-.6 2-.7.8-2 .8l-.8-.1-.9-.2v-1l1 .4h.8q.8 0 1.1-.4.4-.4.4-1.3v-.8q-.2.5-.6.8-.4.2-1 .2-1 0-1.7-.8-.6-.8-.6-2.3 0-1.4.6-2.2.6-.9 1.7-.9.6 0 1 .3.4.2.6.7v-.8h1zm5.3-1.8q0 .7.2 1 .3.4.7.4h1.2v.8h-1.3q-.9 0-1.3-.6-.5-.5-.5-1.6v-5.4h-1.6v-.8h2.6zm9.1-1.3v.5h-4.3q0 1.2.5 1.8.5.5 1.5.5l1-.1 1-.5v1l-1 .3-1 .2q-1.5 0-2.2-.9-.8-.8-.8-2.3 0-1.4.7-2.3.8-.9 2.1-.9 1.1 0 1.8.8t.7 1.9zm-1-.3q0-.6-.4-1-.4-.5-1.1-.5-.8 0-1.2.4-.5.5-.5 1.1zm14.8 3.5-.9.3q-.4.2-1 .2-1.5 0-2.3-1.1-.9-1.1-.9-3.1t.9-3q.9-1.2 2.4-1.2l1 .1.8.4v1l-.9-.4q-.4-.2-1-.2-1 0-1.5.8t-.5 2.5q0 1.6.5 2.5.5.8 1.6.8l1-.2.8-.5zm5.1-1.9q0 .7.2 1 .3.4.7.4h1.2v.8h-1.3q-.9 0-1.3-.6-.5-.5-.5-1.6v-5.4h-1.6v-.8h2.6zm6.4-3.1q-.7 0-1.1.6-.4.5-.4 1.7 0 1.1.4 1.7.4.6 1.1.6.8 0 1.2-.6.3-.6.3-1.7 0-1.2-.3-1.7-.4-.6-1.2-.6zm0-.9q1.3 0 2 .9.6.8.6 2.3 0 1.5-.7 2.3-.6.9-1.9.9-1.2 0-1.9-.9-.7-.8-.7-2.3 0-1.5.7-2.3.7-.9 2-.9zm4.7 3.9V342h1v3.7q0 .8.3 1.2.3.4 1 .4.6 0 1-.5t.4-1.4V342h1v6h-1v-.9q-.3.5-.8.8-.4.3-1 .3-1 0-1.4-.6-.5-.7-.5-1.9zm10.6-2.9v-3.2h1v8.4h-1v-.8q-.2.5-.6.7-.5.3-1 .3-1 0-1.7-.9-.6-.8-.6-2.3 0-1.5.6-2.3.6-.9 1.7-.9.5 0 1 .3.4.2.6.7zm-2.9 2.2q0 1.1.4 1.7.3.6 1 .6.8 0 1.1-.6.4-.6.4-1.7t-.4-1.7q-.3-.6-1-.6-.8 0-1.1.6-.4.5-.4 1.7z"/>
  <path d="M800.9 351.3v-14h.8v14z"/>
  <path d="M69.9 332.3v-.9h6.8v1zm7 0v-.9h6.8v1zm7 0v-.9h6.8v1zm7 0v-.9h6.8v1zm7 0v-.9h6.8v1zm7 0v-.9h6.8v1zm7 0v-.9h6.8v1zm7 0v-.9h6.8v1zm7 0v-.9h6.8v1zm7 0v-.9h6.8v1zm7 0v-.9h6.8v1zm7 0v-.9h6.8v1zm7 0v-.9h6.8v1zm7 0v-.9h6.8v1zm7 0v-.9h6.8v1zm7 0v-.9h6.8v1zm7 0v-.9h6.8v1zm7 0v-.9h6.8v1zm7 0v-.9h6.8v1zm7 0v-.9h6.8v1zm7 0v-.9h6.8v1zm7 0v-.9h6.8v1zm7 0v-.9h6.8v1zm7 0v-.9h6.8v1zm10 6v-6h-3v-.9h3.8v7z"/>
  <path d="M268.9 338.3v-14h.8v14zm35 0v-14h.8v14zm231 0v-14h.8v14zm35 0v-14h.8v14zm231 0v-14h.8v14z"/>
  <path d="M156.9 286.3v-14h.8v14zm1.1 2.7-2.6 4.2h2.5zm-.2-1h1.2v5.2h1.1v.9h-1v1.9h-1.2v-2h-3.4v-1zm-.9 24.3v-14h.8v14zm.4 10.1L154 316h6.6z"/>
  <path d="M268.9 325.3v-14h.8v14z"/>
  <path d="M289.9 325.3v-14h.8v14z"/>
  <path d="M303.9 325.3v-14h.8v14z"/>
  <path d="M331.9 319.3v-8h.8v7.1h3v1zm4 0v-.9h6.8v1zm7 0v-.9h6.8v1zm7 0v-.9h6.8v1zm7 0v-.9h6.8v1zm7 0v-.9h6.8v1zm7 0v-.9h6.8v1zm7 0v-.9h6.8v1zm7 0v-.9h6.8v1zm7 0v-.9h6.8v1zm7 0v-.9h6.8v1zm7 0v-.9h6.8v1zm7 0v-.9h6.8v1zm7 0v-.9h6.8v1zm7 0v-.9h6.8v1zm7 0v-.9h6.8v1zm7 0v-.9h6.8v1zm7 0v-.9h6.8v1zm7 0v-.9h6.8v1zm7 0v-.9h6.8v1zm7 0v-.9h6.8v1zm7 0v-.9h6.8v1zm7 0v-.9h6.8v1zm7 0v-.9h6.8v1zm7 0v-.9h6.8v1zm7 0v-.9h3v-7.1h.8v8z"/>
  <path d="M534.9 325.3v-14h.8v14zm35 0v-14h.8v14z"/>
  <path d="M597.9 319.3v-8h.8v7.1h3v1zm4 0v-.9h6.8v1zm7 0v-.9h6.8v1zm7 0v-.9h6.8v1zm7 0v-.9h6.8v1zm7 0v-.9h6.8v1zm7 0v-.9h6.8v1zm7 0v-.9h6.8v1zm7 0v-.9h6.8v1zm7 0v-.9h6.8v1zm7 0v-.9h6.8v1zm7 0v-.9h6.8v1zm7 0v-.9h6.8v1zm7 0v-.9h6.8v1zm7 0v-.9h6.8v1zm7 0v-.9h6.8v1zm7 0v-.9h6.8v1zm7 0v-.9h6.8v1zm7 0v-.9h6.8v1zm7 0v-.9h6.8v1zm7 0v-.9h6.8v1zm7 0v-.9h6.8v1zm7 0v-.9h6.8v1zm7 0v-.9h6.8v1zm7 0v-.9h6.8v1zm7 0v-.9h3v-7.1h.8v8z"/>
  <path d="M800.9 325.3v-14h.8v14zm-532-13v-14h.8v14zm35 0v-14h.8v14z"/>
  <path d="M331.9 312.3v-14h.8v14zm175 0v-14h.8v14z"/>
  <path d="M534.9 312.3v-14h.8v14zm35 0v-14h.8v14z"/>
  <path d="M597.9 312.3v-14h.8v14zm175 0v-14h.8v14z"/>
  <path d="M800.9 312.3v-14h.8v14zm-532-13v-14h.8v14z"/>
  <path d="M289.9 299.3v-14h.8v14z"/>
  <path d="M303.9 299.3v-14h.8v14z"/>
  <path d="M331.9 299.3v-14h.8v14zm175 0v-14h.8v14z"/>
  <path d="M534.9 299.3v-14h.8v14z"/>
  <path d="M548.9 293.3v-8h.8v7.1h3v1zm11 0v-.9h6.8v1z"/>
  <path d="M569.9 299.3v-14h.8v14z"/>
  <path d="M573.9 293.3v-.9h6.8v1zm14.1 3.1V290l6.6 3.2zm9.9 2.9v-14h.8v14zm76.1-5.5h2v2.2h-2zm7 0h2v2.2h-2zm7 0h2v2.2h-2zm84.9 5.5v-14h.8v14z"/>
  <path d="M800.9 299.3v-14h.8v14zm-532-13v-14h.8v14zm35 0v-14h.8v14z"/>
  <path d="M331.9 286.3v-14h.8v14zm175 0v-14h.8v14z"/>
  <path d="M534.9 286.3v-14h.8v14zm35 0v-14h.8v14z"/>
  <path d="M597.9 286.3v-14h.8v14zm175 0v-14h.8v14z"/>
  <path d="M800.9 286.3v-14h.8v14z"/>
  <path d="M69.9 267.3v-.9h6.8v1zm7 0v-.9h6.8v1zm7 0v-.9h6.8v1zm7 0v-.9h6.8v1zm7 0v-.9h6.8v1zm7 0v-.9h6.8v1zm7 0v-.9h6.8v1zm7 0v-.9h6.8v1zm7 0v-.9h6.8v1zm7 0v-.9h6.8v1zm7 0v-.9h6.8v1zm7 0v-.9h6.8v1zm7 0v-.9h6.8v1zm7 0v-.9h6.8v1zm7 0v-.9h6.8v1zm7 0v-.9h6.8v1zm7 0v-.9h6.8v1zm7 0v-.9h6.8v1zm7 0v-.9h6.8v1zm7 0v-.9h6.8v1zm7 0v-.9h6.8v1zm7 0v-.9h6.8v1zm7 0v-.9h6.8v1zm7 0v-.9h6.8v1zm7 0v-.9h3v-7.1h.8v8z"/>
  <path d="M268.9 273.3v-14h.8v14z"/>
  <path d="M289.9 273.3v-14h.8v14z"/>
  <path d="M303.9 273.3v-14h.8v14z"/>
  <path d="M331.9 273.3v-14h.8v14zm51-7.3q0-1.8-.4-2.5-.4-.8-1.2-.8-.8 0-1.2.8-.3.7-.3 2.5t.3 2.5q.4.8 1.2.8.8 0 1.2-.8.4-.7.4-2.5zm1 0q0 2-.6 3.1-.6 1-2 1t-2-1q-.7-1-.7-3.1t.7-3.1q.7-1 2-1 1.4 0 2 1 .7 1 .7 3.1zm2.1-4h4.5v.9H389v6.2h1.6v.9h-4.4v-1h1.7v-6H386zm8.3 7.1q1.4 0 2-.7.5-.6.5-2.4 0-1.8-.5-2.5-.6-.6-2-.6h-.5v6.2zm0-7.1q1.9 0 2.8 1 .8 1 .8 3t-.8 3q-.9 1-2.7 1h-1.7v-8zm10.5 7.7-.9.3q-.4.2-1 .2-1.5 0-2.3-1.1-.9-1.1-.9-3.1t.9-3q.9-1.2 2.4-1.2l1 .1.8.4v1l-.9-.4q-.4-.2-1-.2-1 0-1.5.8t-.5 2.5q0 1.6.5 2.5.5.8 1.6.8l1-.2.8-.5zm13.6-7.4v1l-1-.4-1-.2q-.7 0-1.2.4-.4.3-.4 1 0 .5.3.7.3.3 1 .5l.6.1q1.2.3 1.7.9.5.5.5 1.5 0 1.2-.7 1.8-.7.6-2 .6l-1.2-.2q-.6 0-1.2-.3v-1.2l1.2.6 1.1.2q.8 0 1.3-.4t.5-1q0-.6-.4-1-.3-.3-1-.4l-.6-.2q-1.1-.2-1.6-.7-.6-.5-.6-1.4 0-1 .8-1.7.7-.7 1.9-.7l1 .1 1 .4zm7.6 4.2v.5h-4.3q0 1.2.5 1.8.5.5 1.5.5l1-.1 1-.5v1l-1 .3-1 .2q-1.5 0-2.2-.9-.8-.8-.8-2.3 0-1.4.7-2.3.8-.9 2.1-.9 1.1 0 1.8.8t.7 1.9zm-1-.3q0-.6-.4-1-.4-.5-1.1-.5-.8 0-1.2.4-.5.5-.5 1.1zm8.2-1-.6-.3-.8-.1q-.9 0-1.4.5-.5.6-.5 1.7v3h-1v-6h1v1.2q.3-.7.8-1 .5-.4 1.2-.4l.7.1.6.3zm1.3-1.2h1l1.8 5 1.8-5h1l-2.2 6h-1.2zm8.2 0h2.5v5.2h2v.8h-5v-.8h2v-4.4h-1.5zm1.5-2.3h1v1.2h-1zm9.5 8-.8.3q-.4.2-.9.2-1.4 0-2.2-.9-.8-.8-.8-2.3 0-1.5.8-2.3.8-.9 2.2-.9.5 0 .9.2.4 0 .8.3v1l-.8-.5-.9-.1q-1 0-1.4.6-.5.6-.5 1.7t.5 1.7q.5.6 1.4.6l1-.1.7-.5zm7.3-3.2v.5h-4.3q0 1.2.5 1.8.5.5 1.5.5l1-.1 1-.5v1l-1 .3-1 .2q-1.5 0-2.2-.9-.8-.8-.8-2.3 0-1.4.7-2.3.8-.9 2.1-.9 1.1 0 1.8.8t.7 1.9zm-1-.3q0-.6-.4-1-.4-.5-1.1-.5-.8 0-1.2.4-.5.5-.5 1.1zm46.9 7.1v-14h.8v14z"/>
  <path d="M534.9 273.3v-14h.8v14z"/>
  <path d="M548.9 273.3v-14h.8v14z"/>
  <path d="M569.9 273.3v-14h.8v14z"/>
  <path d="M597.9 273.3v-6.9h3.8v1h-3v6zm4-6v-.9h6.8v1zm7 0v-.9h6.8v1zm7 0v-.9h6.8v1zm7 0v-.9h6.8v1zm7 0v-.9h6.8v1zm7 0v-.9h6.8v1zm7 0v-.9h6.8v1zm7 0v-.9h6.8v1zm7 0v-.9h6.8v1zm7 0v-.9h6.8v1zm7 0v-.9h6.8v1zm7 0v-.9h6.8v1zm7 0v-.9h6.8v1zm7 0v-.9h6.8v1zm7 0v-.9h6.8v1zm7 0v-.9h6.8v1zm7 0v-.9h6.8v1zm7 0v-.9h6.8v1zm7 0v-.9h6.8v1zm7 0v-.9h6.8v1zm7 0v-.9h6.8v1zm7 0v-.9h6.8v1zm7 0v-.9h6.8v1zm7 0v-.9h6.8v1zm10 6v-6h-3v-.9h3.8v7z"/>
  <path d="M800.9 273.3v-14h.8v14z"/>
  <path d="M85 236h4.5v.9H88v6.2h1.6v.9h-4.4v-1h1.7v-6H85zm155.9 24.3v-14h.8v14z"/>
  <path d="M268.9 260.3v-14h.8v14zm35 0v-14h.8v14z"/>
  <path d="M331.9 260.3v-14h.8v14zm175 0v-14h.8v14z"/>
  <path d="M534.9 260.3v-14h.8v14zm35 0v-14h.8v14zm231 0v-14h.8v14z"/>
  <path d="m94.3 237-1.1 4h2.3zm-.6-1H95l2.4 8h-1.1l-.6-2H93l-.6 2h-1.1zm4.5 0h1.4l1.4 4 1.4-4h1.5v8h-1v-7l-1.5 4.1h-.8l-1.4-4.2v7.1h-1zm19.6 7.7-.9.3q-.4.2-1 .2-1.5 0-2.3-1.1-.9-1.1-.9-3.1t.9-3q.9-1.2 2.4-1.2l1 .1.8.4v1l-.9-.4q-.4-.2-1-.2-1 0-1.5.8t-.5 2.5q0 1.6.5 2.5.5.8 1.6.8l1-.2.8-.5zm7.4-4.5-.6-.3-.8-.1q-.9 0-1.4.5-.5.6-.5 1.7v3h-1v-6h1v1.2q.3-.7.8-1 .5-.4 1.2-.4l.7.1.6.3zm6.8 1.3v.5h-4.3q0 1.2.5 1.8.5.5 1.5.5l1-.1 1-.5v1l-1 .3-1 .2q-1.5 0-2.2-.9-.8-.8-.8-2.3 0-1.4.7-2.3.8-.9 2.1-.9 1.1 0 1.8.8t.7 1.9zm-1-.3q0-.6-.4-1-.4-.5-1.1-.5-.8 0-1.2.4-.5.5-.5 1.1zm6.6-1.4v-3.2h1v8.4h-1v-.8q-.2.5-.6.7-.5.3-1 .3-1 0-1.7-.9-.6-.8-.6-2.3 0-1.5.6-2.3.6-.9 1.7-.9.5 0 1 .3.4.2.6.7zm-2.9 2.2q0 1.1.4 1.7.3.6 1 .6.8 0 1.1-.6.4-.6.4-1.7t-.4-1.7q-.3-.6-1-.6-.8 0-1.1.6-.4.5-.4 1.7zm11.3-.5v.5h-4.3q0 1.2.5 1.8.5.5 1.5.5l1-.1 1-.5v1l-1 .3-1 .2q-1.5 0-2.2-.9-.8-.8-.8-2.3 0-1.4.7-2.3.8-.9 2.1-.9 1.1 0 1.8.8t.7 1.9zm-1-.3q0-.6-.4-1-.4-.5-1.1-.5-.8 0-1.2.4-.5.5-.5 1.1zm7.6.1v3.7h-1v-3.7q0-.8-.2-1.2-.3-.4-1-.4-.6 0-1 .5t-.4 1.4v3.4h-1v-6h1v.9q.3-.5.7-.8.5-.3 1.1-.3 1 0 1.4.6.4.6.4 1.9zm4.7-4v1.7h2.2v.8h-2.2v3.2q0 .7.3 1 .2.2.8.2h1.1v.8h-1.2q-1 0-1.5-.4-.5-.5-.5-1.6v-3.2h-1.6v-.8h1.6v-1.7zm5.4 1.7h2.5v5.2h2v.8h-5v-.8h2v-4.4h-1.5zm1.5-2.3h1v1.2h-1zm7.6 5.3h-.4q-.8 0-1.3.3-.4.3-.4.9 0 .5.3.8.4.3 1 .3.8 0 1.2-.5.5-.6.5-1.6v-.2zm1.9-.4v3.4h-1v-.9q-.3.5-.8.8-.5.3-1.2.3-.9 0-1.4-.6-.6-.5-.6-1.4 0-1 .7-1.5t2-.5h1.3v-.2q0-.7-.4-1-.3-.3-1.1-.3l-1 .1-1 .4v-1l1-.3h1q.7 0 1.3.2.5.2.8.6l.3.7v1.2zm5.2 1.2q0 .7.2 1 .3.4.7.4h1.2v.8h-1.3q-.9 0-1.3-.6-.5-.5-.5-1.6v-5.4h-1.6v-.8h2.6zm8.3-3.6v1l-.8-.4-.9-.1q-.7 0-1 .2-.3.2-.3.6 0 .5.2.6l1.2.4.4.1q.8.2 1.2.6.3.4.3 1 0 1-.6 1.5t-1.8.5l-.9-.1-1-.3v-1l1 .4 1 .1q.6 0 1-.2.3-.3.3-.8 0-.7-1.3-1h-.4q-.9-.2-1.2-.6-.4-.4-.4-1 0-1 .6-1.4.5-.5 1.6-.5l1 .1.8.3zm12.1-1.2-1.1 4h2.3zm-.6-1h1.3l2.4 8h-1.1l-.6-2H198l-.6 2h-1.1zm6.4.9v3h1.3q.8 0 1.2-.4.4-.4.4-1.1 0-.7-.4-1.1-.4-.4-1.2-.4zm-1-1h2.3q1.3 0 2 .7.7.6.7 1.8 0 1.2-.7 1.8-.7.6-2 .6h-1.3v3.2h-1zm6.9.1h4.5v.9H214v6.2h1.6v.9h-4.4v-1h1.7v-6H211zm29.9 11.3v-14h.8v14z"/>
  <path d="M268.9 247.3v-14h.8v14z"/>
  <path d="M289.9 247.3v-14h.8v14z"/>
  <path d="M303.9 247.3v-14h.8v14z"/>
  <path d="M331.9 247.3v-14h.8v14zm175 0v-14h.8v14z"/>
  <path d="M534.9 247.3v-14h.8v14z"/>
  <path d="M548.9 247.3v-14h.8v14z"/>
  <path d="M569.9 247.3v-14h.8v14z"/>
  <path d="M597.9 241.3v-8h.8v7.1h3v1zm4 0v-.9h6.8v1zm7 0v-.9h6.8v1zm7 0v-.9h6.8v1zm7 0v-.9h6.8v1zm7 0v-.9h6.8v1zm7 0v-.9h6.8v1zm7 0v-.9h6.8v1zm7 0v-.9h6.8v1zm7 0v-.9h6.8v1zm7 0v-.9h6.8v1zm7 0v-.9h6.8v1zm7 0v-.9h6.8v1zm7 0v-.9h6.8v1zm7 0v-.9h6.8v1zm7 0v-.9h6.8v1zm7 0v-.9h6.8v1zm7 0v-.9h6.8v1zm7 0v-.9h6.8v1zm7 0v-.9h6.8v1zm7 0v-.9h6.8v1zm7 0v-.9h6.8v1zm7 0v-.9h6.8v1zm7 0v-.9h6.8v1zm7 0v-.9h6.8v1zm7 0v-.9h3v-7.1h.8v8z"/>
  <path d="M800.9 247.3v-14h.8v14z"/>
  <path d="M240.9 234.3v-14h.8v14z"/>
  <path d="M268.9 234.3v-14h.8v14zm35 0v-14h.8v14z"/>
  <path d="M331.9 234.3v-14h.8v14zm175 0v-14h.8v14z"/>
  <path d="M534.9 234.3v-14h.8v14zm35 0v-14h.8v14z"/>
  <path d="M597.9 234.3v-14h.8v14zm175 0v-14h.8v14z"/>
  <path d="M800.9 234.3v-14h.8v14z"/>
  <path d="M69.9 215.3v-.9h6.8v1zm7 0v-.9h6.8v1zm7 0v-.9h6.8v1zm7 0v-.9h6.8v1zm7 0v-.9h6.8v1zm7 0v-.9h6.8v1zm7 0v-.9h6.8v1zm7 0v-.9h6.8v1zm7 0v-.9h6.8v1zm7 0v-.9h6.8v1zm7 0v-.9h6.8v1zm7 0v-.9h6.8v1zm7 0v-.9h6.8v1zm7 0v-.9h6.8v1zm7 0v-.9h6.8v1zm7 0v-.9h6.8v1zm7 0v-.9h6.8v1zm7 0v-.9h6.8v1zm7 0v-.9h6.8v1zm7 0v-.9h6.8v1zm7 0v-.9h6.8v1zm7 0v-.9h6.8v1zm7 0v-.9h6.8v1zm7 0v-.9h6.8v1zm10 6v-6h-3v-.9h3.8v7z"/>
  <path d="M268.9 221.3v-14h.8v14z"/>
  <path d="M289.9 221.3v-14h.8v14z"/>
  <path d="M303.9 221.3v-14h.8v14z"/>
  <path d="M331.9 221.3v-6.9h3.8v1h-3v6zm4-6v-.9h6.8v1zm7 0v-.9h6.8v1zm7 0v-.9h6.8v1zm7 0v-.9h6.8v1zm7 0v-.9h6.8v1zm7 0v-.9h6.8v1zm7 0v-.9h6.8v1zm7 0v-.9h6.8v1zm7 0v-.9h6.8v1zm7 0v-.9h6.8v1zm7 0v-.9h6.8v1zm7 0v-.9h6.8v1zm7 0v-.9h6.8v1zm7 0v-.9h6.8v1zm7 0v-.9h6.8v1zm7 0v-.9h6.8v1zm7 0v-.9h6.8v1zm7 0v-.9h6.8v1zm7 0v-.9h6.8v1zm7 0v-.9h6.8v1zm7 0v-.9h6.8v1zm7 0v-.9h6.8v1zm7 0v-.9h6.8v1zm7 0v-.9h6.8v1zm10 6v-6h-3v-.9h3.8v7z"/>
  <path d="M534.9 221.3v-14h.8v14z"/>
  <path d="M548.9 221.3v-14h.8v7.1h3v1h-3v6zm11-6v-.9h6.8v1z"/>
  <path d="M569.9 221.3v-14h.8v14z"/>
  <path d="M573.9 215.3v-.9h6.8v1zm14.1 3.1V212l6.6 3.2zm9.9 2.9v-14h.8v14zm23.9-3.6-.9.3q-.4.2-1 .2-1.5 0-2.3-1.1-.9-1.1-.9-3.1t.9-3q.9-1.2 2.4-1.2l1 .1.8.4v1l-.9-.4q-.4-.2-1-.2-1 0-1.5.8t-.5 2.5q0 1.6.5 2.5.5.8 1.6.8l1-.2.8-.5zm5.1-1.9q0 .7.2 1 .3.4.7.4h1.2v.8h-1.3q-.9 0-1.3-.6-.5-.5-.5-1.6v-5.4h-1.6v-.8h2.6zm6.4-3.1q-.7 0-1.1.6-.4.5-.4 1.7 0 1.1.4 1.7.4.6 1.1.6.8 0 1.2-.6.3-.6.3-1.7 0-1.2-.3-1.7-.4-.6-1.2-.6zm0-.9q1.3 0 2 .9.6.8.6 2.3 0 1.5-.7 2.3-.6.9-1.9.9-1.2 0-1.9-.9-.7-.8-.7-2.3 0-1.5.7-2.3.7-.9 2-.9zm4.7 3.9V212h1v3.7q0 .8.3 1.2.3.4 1 .4.6 0 1-.5t.4-1.4V212h1v6h-1v-.9q-.3.5-.8.8-.4.3-1 .3-1 0-1.4-.6-.5-.7-.5-1.9zm10.6-2.9v-3.2h1v8.4h-1v-.8q-.2.5-.6.7-.5.3-1 .3-1 0-1.7-.9-.6-.8-.6-2.3 0-1.5.6-2.3.6-.9 1.7-.9.5 0 1 .3.4.2.6.7zm-2.9 2.2q0 1.1.4 1.7.3.6 1 .6.8 0 1.1-.6.4-.6.4-1.7t-.4-1.7q-.3-.6-1-.6-.8 0-1.1.6-.4.5-.4 1.7zm17.7-4.7v1l-1-.4-1-.2q-.7 0-1.2.4-.4.3-.4 1 0 .5.3.7.3.3 1 .5l.6.1q1.2.3 1.7.9.5.5.5 1.5 0 1.2-.7 1.8-.7.6-2 .6l-1.2-.2q-.6 0-1.2-.3v-1.2l1.2.6 1.1.2q.8 0 1.3-.4t.5-1q0-.6-.4-1-.3-.3-1-.4l-.6-.2q-1.1-.2-1.6-.7-.6-.5-.6-1.4 0-1 .8-1.7.7-.7 1.9-.7l1 .1 1 .4zm4.9 0v1.7h2.2v.8h-2.2v3.2q0 .7.3 1 .2.2.8.2h1.1v.8h-1.2q-1 0-1.5-.4-.5-.5-.5-1.6v-3.2h-1.6v-.8h1.6v-1.7zm7 2.4q-.7 0-1.1.6-.4.5-.4 1.7 0 1.1.4 1.7.4.6 1.1.6.8 0 1.2-.6.3-.6.3-1.7 0-1.2-.3-1.7-.4-.6-1.2-.6zm0-.9q1.3 0 2 .9.6.8.6 2.3 0 1.5-.7 2.3-.6.9-1.9.9-1.2 0-1.9-.9-.7-.8-.7-2.3 0-1.5.7-2.3.7-.9 2-.9zm9.9 1.4-.6-.3-.8-.1q-.9 0-1.4.5-.5.6-.5 1.7v3h-1v-6h1v1.2q.3-.7.8-1 .5-.4 1.2-.4l.7.1.6.3zm4.6 1.8h-.4q-.8 0-1.3.3-.4.3-.4.9 0 .5.3.8.4.3 1 .3.8 0 1.2-.5.5-.6.5-1.6v-.2zm1.9-.4v3.4h-1v-.9q-.3.5-.8.8-.5.3-1.2.3-.9 0-1.4-.6-.6-.5-.6-1.4 0-1 .7-1.5t2-.5h1.3v-.2q0-.7-.4-1-.3-.3-1.1-.3l-1 .1-1 .4v-1l1-.3h1q.7 0 1.3.2.5.2.8.6l.3.7v1.2zm5.9.4q0-1.2-.4-1.7-.3-.6-1-.6t-1.1.6q-.4.5-.4 1.6 0 1.2.4 1.7.4.6 1.1.6.7 0 1-.6.4-.5.4-1.7zm1 2.6q0 1.4-.6 2-.7.8-2 .8l-.8-.1-.9-.2v-1l1 .4h.8q.8 0 1.1-.4.4-.4.4-1.3v-.8q-.2.5-.6.8-.4.2-1 .2-1 0-1.7-.8-.6-.8-.6-2.3 0-1.4.6-2.2.6-.9 1.7-.9.6 0 1 .3.4.2.6.7v-.8h1zm7.4-3.1v.5h-4.3q0 1.2.5 1.8.5.5 1.5.5l1-.1 1-.5v1l-1 .3-1 .2q-1.5 0-2.2-.9-.8-.8-.8-2.3 0-1.4.7-2.3.8-.9 2.1-.9 1.1 0 1.8.8t.7 1.9zm-1-.3q0-.6-.4-1-.4-.5-1.1-.5-.8 0-1.2.4-.5.5-.5 1.1zm11-.2v3.1h1.3q1 0 1.3-.3.4-.4.4-1.1 0-1-.4-1.4-.4-.3-1.3-.3zm0-3.1v2.2h1.2q.8 0 1.2-.3.3-.3.3-.8 0-.6-.3-.9-.4-.2-1.2-.2zm-1.1-1h2.4q1.2 0 1.9.6.6.5.6 1.5 0 .5-.3 1-.4.4-1 .5.7.1 1.2.7.4.5.4 1.6 0 1-.7 1.6-.7.6-2.1.6h-2.4zm7.1 5.8V212h1v3.7q0 .8.3 1.2.3.4 1 .4.6 0 1-.5t.4-1.4V212h1v6h-1v-.9q-.3.5-.8.8-.4.3-1 .3-1 0-1.4-.6-.5-.7-.5-1.9zm11.7 2-.8.3q-.4.2-.9.2-1.4 0-2.2-.9-.8-.8-.8-2.3 0-1.5.8-2.3.8-.9 2.2-.9.5 0 .9.2.4 0 .8.3v1l-.8-.5-.9-.1q-1 0-1.4.6-.5.6-.5 1.7t.5 1.7q.5.6 1.4.6l1-.1.7-.5zm2.6-8.1h1v4.9l2.6-2.5h1.2l-2.4 2.3 2.8 3.7h-1.3l-2.2-3.1-.7.7v2.4h-1zm11.7 4.9v.5h-4.3q0 1.2.5 1.8.5.5 1.5.5l1-.1 1-.5v1l-1 .3-1 .2q-1.5 0-2.2-.9-.8-.8-.8-2.3 0-1.4.7-2.3.8-.9 2.1-.9 1.1 0 1.8.8t.7 1.9zm-1-.3q0-.6-.4-1-.4-.5-1.1-.5-.8 0-1.2.4-.5.5-.5 1.1zm5.3-3.9v1.7h2.2v.8h-2.2v3.2q0 .7.3 1 .2.2.8.2h1.1v.8h-1.2q-1 0-1.5-.4-.5-.5-.5-1.6v-3.2h-1.6v-.8h1.6v-1.7zm20.6 11v-14h.8v14z"/>
  <path d="M800.9 221.3v-14h.8v14z"/>
  <path d="M156.9 195.3v-14h.8v14zm.4 10.1L154 199h6.6z"/>
  <path d="M268.9 208.3v-14h.8v14zm35 0v-14h.8v14z"/>
  <path d="M423.3 205.4 420 199h6.6z"/>
  <path d="M534.9 208.3v-14h.8v14zm35 0v-14h.8v14z"/>
  <path d="M597.9 208.3v-14h.8v14zm175 0v-14h.8v14z"/>
  <path d="M800.9 208.3v-14h.8v14zm-532-13v-14h.8v14z"/>
  <path d="M289.9 195.3v-14h.8v14z"/>
  <path d="M303.9 195.3v-14h.8v14z"/>
  <path d="M422.9 195.3v-14h.8v14z"/>
  <path d="M534.9 195.3v-14h.8v14z"/>
  <path d="M548.9 195.3v-14h.8v14z"/>
  <path d="M569.9 195.3v-14h.8v14z"/>
  <path d="M597.9 195.3v-6.9h3.8v1h-3v6zm4-6v-.9h6.8v1zm7 0v-.9h6.8v1zm7 0v-.9h6.8v1zm7 0v-.9h6.8v1zm7 0v-.9h6.8v1zm7 0v-.9h6.8v1zm7 0v-.9h6.8v1zm7 0v-.9h6.8v1zm7 0v-.9h6.8v1zm7 0v-.9h6.8v1zm7 0v-.9h6.8v1zm7 0v-.9h6.8v1zm7 0v-.9h6.8v1zm7 0v-.9h6.8v1zm7 0v-.9h6.8v1zm7 0v-.9h6.8v1zm7 0v-.9h6.8v1zm7 0v-.9h6.8v1zm7 0v-.9h6.8v1zm7 0v-.9h6.8v1zm7 0v-.9h6.8v1zm7 0v-.9h6.8v1zm7 0v-.9h6.8v1zm7 0v-.9h6.8v1zm10 6v-6h-3v-.9h3.8v7z"/>
  <path d="M800.9 195.3v-14h.8v14z"/>
  <path d="M13 175.5v.5H8.7q0 1.2.5 1.8.5.5 1.5.5l1-.1 1-.5v1l-1 .3-1 .2q-1.5 0-2.2-.9-.8-.8-.8-2.3 0-1.4.7-2.3.8-.9 2.1-.9 1.1 0 1.8.8t.7 1.9zm-1-.3q0-.6-.4-1-.4-.5-1.1-.5-.8 0-1.2.4-.5.5-.5 1.1zm6.6-1.4v-3.2h1v8.4h-1v-.8q-.2.5-.6.7-.5.3-1 .3-1 0-1.7-.9-.6-.8-.6-2.3 0-1.5.6-2.3.6-.9 1.7-.9.5 0 1 .3.4.2.6.7zm-2.9 2.2q0 1.1.4 1.7.3.6 1 .6.8 0 1.1-.6.4-.6.4-1.7t-.4-1.7q-.3-.6-1-.6-.8 0-1.1.6-.4.5-.4 1.7zm11.3-.5v.5h-4.3q0 1.2.5 1.8.5.5 1.5.5l1-.1 1-.5v1l-1 .3-1 .2q-1.5 0-2.2-.9-.8-.8-.8-2.3 0-1.4.7-2.3.8-.9 2.1-.9 1.1 0 1.8.8t.7 1.9zm-1-.3q0-.6-.4-1-.4-.5-1.1-.5-.8 0-1.2.4-.5.5-.5 1.1zm8.2-1-.6-.3-.8-.1q-.9 0-1.4.5-.5.6-.5 1.7v3h-1v-6h1v1.2q.3-.7.8-1 .5-.4 1.2-.4l.7.1.6.3zm4.6 1.8h-.4q-.8 0-1.3.3-.4.3-.4.9 0 .5.3.8.4.3 1 .3.8 0 1.2-.5.5-.6.5-1.6v-.2zm1.9-.4v3.4h-1v-.9q-.3.5-.8.8-.5.3-1.2.3-.9 0-1.4-.6-.6-.5-.6-1.4 0-1 .7-1.5t2-.5h1.3v-.2q0-.7-.4-1-.3-.3-1.1-.3l-1 .1-1 .4v-1l1-.3h1q.7 0 1.3.2.5.2.8.6l.3.7v1.2zm4.6-4.3v1.7h2.2v.8h-2.2v3.2q0 .7.3 1 .2.2.8.2h1.1v.8h-1.2q-1 0-1.5-.4-.5-.5-.5-1.6v-3.2h-1.6v-.8h1.6v-1.7zm9.7 4.2v.5h-4.3q0 1.2.5 1.8.5.5 1.5.5l1-.1 1-.5v1l-1 .3-1 .2q-1.5 0-2.2-.9-.8-.8-.8-2.3 0-1.4.7-2.3.8-.9 2.1-.9 1.1 0 1.8.8t.7 1.9zm-1-.3q0-.6-.4-1-.4-.5-1.1-.5-.8 0-1.2.4-.5.5-.5 1.1zm6.6-1.4v-3.2h1v8.4h-1v-.8q-.2.5-.6.7-.5.3-1 .3-1 0-1.7-.9-.6-.8-.6-2.3 0-1.5.6-2.3.6-.9 1.7-.9.5 0 1 .3.4.2.6.7zm-2.9 2.2q0 1.1.4 1.7.3.6 1 .6.8 0 1.1-.6.4-.6.4-1.7t-.4-1.7q-.3-.6-1-.6-.8 0-1.1.6-.4.5-.4 1.7zm12.6-5h6v.9H74v7.1h-1.1v-7.1h-2.5zm10 2.7q-.7 0-1.1.6-.4.5-.4 1.7 0 1.1.4 1.7.4.6 1.1.6.8 0 1.2-.6.3-.6.3-1.7 0-1.2-.3-1.7-.4-.6-1.2-.6zm0-.9q1.3 0 2 .9.6.8.6 2.3 0 1.5-.7 2.3-.6.9-1.9.9-1.2 0-1.9-.9-.7-.8-.7-2.3 0-1.5.7-2.3.7-.9 2-.9zm5-2.2h1v4.9l2.6-2.5H90l-2.4 2.3 2.8 3.7h-1.3l-2.2-3.1-.7.7v2.4h-1zm11.7 4.9v.5h-4.3q0 1.2.5 1.8.5.5 1.5.5l1-.1 1-.5v1l-1 .3-1 .2q-1.5 0-2.2-.9-.8-.8-.8-2.3 0-1.4.7-2.3.8-.9 2.1-.9 1.1 0 1.8.8t.7 1.9zm-1-.3q0-.6-.4-1-.4-.5-1.1-.5-.8 0-1.2.4-.5.5-.5 1.1zm7.6.1v3.7h-1v-3.7q0-.8-.2-1.2-.3-.4-1-.4-.6 0-1 .5t-.4 1.4v3.4h-1v-6h1v.9q.3-.5.8-.8.4-.3 1-.3 1 0 1.4.6.4.6.4 1.9zm8.4.8 6.6-3.2v6.5zm6.9.2v-.9h6.8v1zm14 0v-.9h6.8v1zm25.3-1.6q.8.2 1.2.8.4.5.4 1.3 0 1-.7 1.7-.8.7-2.1.7l-1.1-.1-1.2-.3v-1.1l1.1.4 1 .1q1 0 1.4-.4.5-.4.5-1.1 0-.7-.5-1.1-.4-.4-1.3-.4h-.8v-1h.8q.8 0 1.2-.3.4-.3.4-.9 0-.6-.4-1-.3-.3-1-.3l-1 .2q-.6 0-1.1.3v-1l1.1-.3h1q1.1 0 1.8.5.7.6.7 1.6 0 .6-.4 1-.3.5-1 .7z"/>
  <path d="M268.9 182.3v-14h.8v14zm35 0v-14h.8v14z"/>
  <path d="M421.5 178h1.6v-6l-2 1v-1l2-1h1.1v7h1.7v1h-4.4z"/>
  <path d="M534.9 182.3v-14h.8v14zm35 0v-14h.8v14zm231 0v-14h.8v14zm-763-169V6.4h3.8v1h-3v6z"/>
  <path d="M37.9 26.3v-14h.8v14z"/>
  <path d="M37.9 39.3v-14h.8v14z"/>
  <path d="M37.9 52.3v-14h.8v14z"/>
  <path d="M37.9 65.3v-14h.8v14z"/>
  <path d="M37.9 78.3v-14h.8v14z"/>
  <path d="M37.9 91.3v-14h.8v14z"/>
  <path d="M37.9 104.3v-14h.8v14z"/>
  <path d="M37.9 117.3v-14h.8v14z"/>
  <path d="M37.9 130.3v-14h.8v14z"/>
  <path d="M37.9 143.3v-14h.8v14z"/>
  <path d="M37.9 156.3v-14h.8v14z"/>
  <path d="M37.9 169.3v-14h.8v14z"/>
  <path d="M65.9 39.3v-6.9h3.8v1h-3v6z"/>
  <path d="M65.9 52.3v-14h.8v14z"/>
  <path d="M65.9 65.3v-14h.8v14z"/>
  <path d="M65.9 78.3v-14h.8v14z"/>
  <path d="M65.9 91.3v-14h.8v14z"/>
  <path d="M65.9 104.3v-14h.8v14z"/>
  <path d="M65.9 117.3v-14h.8v14z"/>
  <path d="M65.9 130.3v-14h.8v14z"/>
  <path d="M65.9 137.3v-8h.8v7.1h3v1zm88.1 16.1 3.3-6.5 3.3 6.5zm2.9 15.9v-14h.8v14z"/>
  <path d="M268.9 169.3v-14h.8v14z"/>
  <path d="M289.9 169.3v-14h.8v14z"/>
  <path d="M303.9 169.3v-14h.8v14z"/>
  <path d="M422.9 169.3v-14h.8v14z"/>
  <path d="M534.9 169.3v-14h.8v14z"/>
  <path d="M548.9 169.3v-14h.8v14z"/>
  <path d="M569.9 169.3v-14h.8v14z"/>
  <path d="M597.9 163.3v-8h.8v7.1h3v1zm4 0v-.9h6.8v1zm7 0v-.9h6.8v1zm7 0v-.9h6.8v1zm7 0v-.9h6.8v1zm7 0v-.9h6.8v1zm7 0v-.9h6.8v1zm7 0v-.9h6.8v1zm7 0v-.9h6.8v1zm7 0v-.9h6.8v1zm7 0v-.9h6.8v1zm7 0v-.9h6.8v1zm7 0v-.9h6.8v1zm7 0v-.9h6.8v1zm7 0v-.9h6.8v1zm7 0v-.9h6.8v1zm7 0v-.9h6.8v1zm7 0v-.9h6.8v1zm7 0v-.9h6.8v1zm7 0v-.9h6.8v1zm7 0v-.9h6.8v1zm7 0v-.9h6.8v1zm7 0v-.9h6.8v1zm7 0v-.9h6.8v1zm7 0v-.9h6.8v1zm7 0v-.9h3v-7.1h.8v8z"/>
  <path d="M800.9 169.3v-14h.8v14zm-532-13v-14h.8v14zm35 0v-14h.8v14z"/>
  <path d="m420 153.4 3.3-6.5 3.3 6.5z"/>
  <path d="M534.9 156.3v-14h.8v14zm35 0v-14h.8v14z"/>
  <path d="M597.9 156.3v-14h.8v14zm175 0v-14h.8v14z"/>
  <path d="M800.9 156.3v-14h.8v14z"/>
  <path d="M69.9 137.3v-.9h6.8v1zm7 0v-.9h6.8v1zm7 0v-.9h6.8v1zm7 0v-.9h6.8v1zm7 0v-.9h6.8v1zm7 0v-.9h6.8v1zm7 0v-.9h6.8v1zm7 0v-.9h6.8v1zm7 0v-.9h6.8v1zm7 0v-.9h6.8v1zm7 0v-.9h6.8v1zm7 0v-.9h6.8v1zm7 0v-.9h6.8v1zm7 0v-.9h6.8v1zm7 0v-.9h6.8v1zm7 0v-.9h6.8v1zm7 0v-.9h6.8v1zm7 0v-.9h6.8v1zm7 0v-.9h6.8v1zm7 0v-.9h6.8v1zm7 0v-.9h6.8v1zm7 0v-.9h6.8v1zm7 0v-.9h6.8v1zm7 0v-.9h6.8v1zm7 0v-.9h3v-7.1h.8v8z"/>
  <path d="M268.9 143.3v-14h.8v14z"/>
  <path d="M289.9 143.3v-14h.8v14z"/>
  <path d="M303.9 143.3v-14h.8v14z"/>
  <path d="M331.9 137.3v-8h.8v7.1h3v1zm4 0v-.9h6.8v1zm7 0v-.9h6.8v1zm7 0v-.9h6.8v1zm7 0v-.9h6.8v1zm7 0v-.9h6.8v1zm7 0v-.9h6.8v1zm7 0v-.9h6.8v1zm7 0v-.9h6.8v1zm7 0v-.9h6.8v1zm7 0v-.9h6.8v1zm7 0v-.9h6.8v1zm7 0v-.9h6.8v1zm7 0v-.9h6.8v1zm7 0v-.9h6.8v1zm7 0v-.9h6.8v1zm7 0v-.9h6.8v1zm7 0v-.9h6.8v1zm7 0v-.9h6.8v1zm7 0v-.9h6.8v1zm7 0v-.9h6.8v1zm7 0v-.9h6.8v1zm7 0v-.9h6.8v1zm7 0v-.9h6.8v1zm7 0v-.9h6.8v1zm7 0v-.9h3v-7.1h.8v8z"/>
  <path d="M534.9 143.3v-14h.8v14z"/>
  <path d="M548.9 143.3v-14h.8v7.1h3v1h-3v6zm11-6v-.9h6.8v1z"/>
  <path d="M569.9 143.3v-14h.8v14z"/>
  <path d="M573.9 137.3v-.9h6.8v1zm14.1 3.1V134l6.6 3.2zm9.9 2.9v-14h.8v14zm30.9-3.6-.9.3q-.4.2-1 .2-1.5 0-2.3-1.1-.9-1.1-.9-3.1t.9-3q.9-1.2 2.4-1.2l1 .1.8.4v1l-.9-.4q-.4-.2-1-.2-1 0-1.5.8t-.5 2.5q0 1.6.5 2.5.5.8 1.6.8l1-.2.8-.5zm5.1-1.9q0 .7.2 1 .3.4.7.4h1.2v.8h-1.3q-.9 0-1.3-.6-.5-.5-.5-1.6v-5.4h-1.6v-.8h2.6zm6.4-3.1q-.7 0-1.1.6-.4.5-.4 1.7 0 1.1.4 1.7.4.6 1.1.6.8 0 1.2-.6.3-.6.3-1.7 0-1.2-.3-1.7-.4-.6-1.2-.6zm0-.9q1.3 0 2 .9.6.8.6 2.3 0 1.5-.7 2.3-.6.9-1.9.9-1.2 0-1.9-.9-.7-.8-.7-2.3 0-1.5.7-2.3.7-.9 2-.9zm4.7 3.9V134h1v3.7q0 .8.3 1.2.3.4 1 .4.6 0 1-.5t.4-1.4V134h1v6h-1v-.9q-.3.5-.8.8-.4.3-1 .3-1 0-1.4-.6-.5-.7-.5-1.9zm10.6-2.9v-3.2h1v8.4h-1v-.8q-.2.5-.6.7-.5.3-1 .3-1 0-1.7-.9-.6-.8-.6-2.3 0-1.5.6-2.3.6-.9 1.7-.9.5 0 1 .3.4.2.6.7zm-2.9 2.2q0 1.1.4 1.7.3.6 1 .6.8 0 1.1-.6.4-.6.4-1.7t-.4-1.7q-.3-.6-1-.6-.8 0-1.1.6-.4.5-.4 1.7zm16.3-.8q.5.1.8.4.3.3.7 1.2l1.1 2.2h-1.1l-1-2q-.4-.9-.7-1.1-.4-.3-.9-.3h-1v3.4h-1.1v-8h2.2q1.3 0 2 .6t.7 1.7q0 .8-.4 1.3t-1.2.6zm-2-3.2v2.8h1.1q.8 0 1.2-.3.4-.4.4-1.1 0-.7-.4-1-.4-.4-1.2-.4zm6 4.7V134h1v3.7q0 .8.3 1.2.3.4 1 .4.6 0 1-.5t.4-1.4V134h1v6h-1v-.9q-.3.5-.8.8-.4.3-1 .3-1 0-1.4-.6-.5-.7-.5-1.9zm11.6-1.4v3.7h-1v-3.7q0-.8-.2-1.2-.3-.4-1-.4-.6 0-1 .5t-.4 1.4v3.4h-1v-6h1v.9q.3-.5.8-.8.4-.3 1-.3 1 0 1.4.6.4.6.4 1.9zm13.8-4v1l-1-.4-1-.2q-.7 0-1.2.4-.4.3-.4 1 0 .5.3.7.3.3 1 .5l.6.1q1.2.3 1.7.9.5.5.5 1.5 0 1.2-.7 1.8-.7.6-2 .6l-1.2-.2q-.6 0-1.2-.3v-1.2l1.2.6 1.1.2q.8 0 1.3-.4t.5-1q0-.6-.4-1-.3-.3-1-.4l-.6-.2q-1.1-.2-1.6-.7-.6-.5-.6-1.4 0-1 .8-1.7.7-.7 1.9-.7l1 .1 1 .4zm7.6 4.2v.5h-4.3q0 1.2.5 1.8.5.5 1.5.5l1-.1 1-.5v1l-1 .3-1 .2q-1.5 0-2.2-.9-.8-.8-.8-2.3 0-1.4.7-2.3.8-.9 2.1-.9 1.1 0 1.8.8t.7 1.9zm-1-.3q0-.6-.4-1-.4-.5-1.1-.5-.8 0-1.2.4-.5.5-.5 1.1zm8.2-1-.6-.3-.8-.1q-.9 0-1.4.5-.5.6-.5 1.7v3h-1v-6h1v1.2q.3-.7.8-1 .5-.4 1.2-.4l.7.1.6.3zm1.3-1.2h1l1.8 5 1.8-5h1l-2.2 6h-1.2zm8.2 0h2.5v5.2h2v.8h-5v-.8h2v-4.4h-1.5zm1.5-2.3h1v1.2h-1zm9.5 8-.8.3q-.4.2-.9.2-1.4 0-2.2-.9-.8-.8-.8-2.3 0-1.5.8-2.3.8-.9 2.2-.9.5 0 .9.2.4 0 .8.3v1l-.8-.5-.9-.1q-1 0-1.4.6-.5.6-.5 1.7t.5 1.7q.5.6 1.4.6l1-.1.7-.5zm7.3-3.2v.5h-4.3q0 1.2.5 1.8.5.5 1.5.5l1-.1 1-.5v1l-1 .3-1 .2q-1.5 0-2.2-.9-.8-.8-.8-2.3 0-1.4.7-2.3.8-.9 2.1-.9 1.1 0 1.8.8t.7 1.9zm-1-.3q0-.6-.4-1-.4-.5-1.1-.5-.8 0-1.2.4-.5.5-.5 1.1zm32.9 7.1v-14h.8v14z"/>
  <path d="M800.9 143.3v-14h.8v14z"/>
  <path d="M82.4 80.3v1l-1-.4-1-.2q-.7 0-1.2.4-.4.3-.4 1 0 .5.3.7.3.3 1 .5l.6.1q1.2.3 1.7.9.5.5.5 1.5 0 1.2-.7 1.8-.7.6-2 .6L79 88q-.6 0-1.2-.3v-1.2l1.2.6 1.1.2q.8 0 1.3-.4t.5-1q0-.6-.4-1-.3-.3-1-.4l-.6-.2q-1.1-.2-1.6-.7-.6-.5-.6-1.4 0-1 .8-1.7.7-.7 1.9-.7l1 .1 1 .4zm158.5 24v-14h.8v14z"/>
  <path d="M240.9 117.3v-14h.8v14z"/>
  <path d="M240.9 130.3v-14h.8v14zm4-19v-.9h6.8v1zm7 0v-.9h6.8v1zm7 0v-.9h6.8v1z"/>
  <path d="M268.9 130.3v-14h.8v14zm35 0v-14h.8v14z"/>
  <path d="M331.9 130.3v-14h.8v14zm175 0v-14h.8v14z"/>
  <path d="M534.9 130.3v-14h.8v14zm35 0v-14h.8v14z"/>
  <path d="M597.9 130.3v-14h.8v14zm175 0v-14h.8v14z"/>
  <path d="M800.9 130.3v-14h.8v14z"/>
  <path d="M269.7 111.3v6h-.8v-6h-3v-.9h3v-7.1h.8v7.1h3v1zm3.2 0v-.9h6.8v1zm7 0v-.9h6.8v1zm10 6v-6h-3v-.9h6.8v1h-3v6zm4-6v-.9h6.8v1zm8.2-5.3h4v.9h-3v2l.5-.2h.4q1.3 0 2 .7.7.8.7 2 0 1.3-.7 2-.8.8-2.1.8l-1.2-.1-1-.3v-1l1 .3 1 .1q1 0 1.5-.4.5-.5.5-1.4 0-.8-.6-1.3-.5-.5-1.3-.5l-.9.1-.8.3zm5.8 5.3v-.9h6.8v1zm7 0v-.9h6.8v1zm7.1 3.1V108l6.6 3.2zm9.9 2.9v-14h.8v14zm175 0v-14h.8v14z"/>
  <path d="M534.9 117.3v-14h.8v14z"/>
  <path d="M548.9 117.3v-14h.8v14z"/>
  <path d="M569.9 117.3v-14h.8v14z"/>
  <path d="M597.9 117.3v-6.9h3.8v1h-3v6zm4-6v-.9h6.8v1zm7 0v-.9h6.8v1zm7 0v-.9h6.8v1zm7 0v-.9h6.8v1zm7 0v-.9h6.8v1zm7 0v-.9h6.8v1zm7 0v-.9h6.8v1zm7 0v-.9h6.8v1zm7 0v-.9h6.8v1zm7 0v-.9h6.8v1zm7 0v-.9h6.8v1zm7 0v-.9h6.8v1zm7 0v-.9h6.8v1zm7 0v-.9h6.8v1zm7 0v-.9h6.8v1zm7 0v-.9h6.8v1zm7 0v-.9h6.8v1zm7 0v-.9h6.8v1zm7 0v-.9h6.8v1zm7 0v-.9h6.8v1zm7 0v-.9h6.8v1zm7 0v-.9h6.8v1zm7 0v-.9h6.8v1zm7 0v-.9h6.8v1zm10 6v-6h-3v-.9h3.8v7z"/>
  <path d="M800.9 117.3v-14h.8v14zm-532-13v-14h.8v14zm35 0v-14h.8v14z"/>
  <path d="M331.9 104.3v-14h.8v14zm175 0v-14h.8v14z"/>
  <path d="M534.9 104.3v-14h.8v14zm35 0v-14h.8v14zm231 0v-14h.8v14z"/>
  <path d="M90 84.5v.5h-4.3q0 1.2.5 1.8.5.5 1.5.5l1-.1 1-.5v1l-1 .3-1 .2q-1.5 0-2.2-.9-.8-.8-.8-2.3 0-1.4.7-2.3.8-.9 2.1-.9 1.1 0 1.8.8t.7 1.9zm-1-.3q0-.6-.4-1-.4-.5-1.1-.5-.8 0-1.2.4-.5.5-.5 1.1zm7.7 3.5-.8.3q-.4.2-.9.2-1.4 0-2.2-.9-.8-.8-.8-2.3 0-1.5.8-2.3.8-.9 2.2-.9.5 0 .9.2.4 0 .8.3v1l-.8-.5-.9-.1q-1 0-1.4.6-.5.6-.5 1.7t.5 1.7q.5.6 1.4.6l1-.1.7-.5zm2.3-2V82h1v3.7q0 .8.3 1.2.3.4 1 .4.6 0 1-.5t.4-1.4V82h1v6h-1v-.9q-.3.5-.8.8-.4.3-1 .3-1 0-1.4-.6-.5-.7-.5-1.9zm12.2-2.5-.6-.3-.8-.1q-.9 0-1.4.5-.5.6-.5 1.7v3h-1v-6h1v1.2q.3-.7.8-1 .5-.4 1.2-.4l.7.1.6.3zm2.5-1.2h2.5v5.2h2v.8h-5v-.8h2v-4.4h-1.5zm1.5-2.3h1v1.2h-1zm7.1.6V82h2.2v.8h-2.2V86q0 .7.3 1 .2.2.8.2h1.1v.8h-1.2q-1 0-1.5-.4-.5-.5-.5-1.6v-3.2h-1.6V82h1.6v-1.7zm8.3 5.7-.6 1.7-.7 1.8q-.3.4-.7.6-.3.2-.8.2h-.8v-.8h.6q.4 0 .7-.3l.6-1.3-2.3-6h1l1.8 4.8L131 82h1zm9.7-6h6v.9H144V88h-1.1v-7.1h-2.5zm10 2.7q-.7 0-1.1.6-.4.5-.4 1.7 0 1.1.4 1.7.4.6 1.1.6.8 0 1.2-.6.3-.6.3-1.7 0-1.2-.3-1.7-.4-.6-1.2-.6zm0-.9q1.3 0 2 .9.6.8.6 2.3 0 1.5-.7 2.3-.6.9-1.9.9-1.2 0-1.9-.9-.7-.8-.7-2.3 0-1.5.7-2.3.7-.9 2-.9zm5-2.2h1v4.9l2.6-2.5h1.2l-2.4 2.3 2.8 3.7h-1.3l-2.2-3.1-.7.7V88h-1zm11.7 4.9v.5h-4.3q0 1.2.5 1.8.5.5 1.5.5l1-.1 1-.5v1l-1 .3-1 .2q-1.5 0-2.2-.9-.8-.8-.8-2.3 0-1.4.7-2.3.8-.9 2.1-.9 1.1 0 1.8.8t.7 1.9zm-1-.3q0-.6-.4-1-.4-.5-1.1-.5-.8 0-1.2.4-.5.5-.5 1.1zm7.6.1V88h-1v-3.7q0-.8-.2-1.2-.3-.4-1-.4-.6 0-1 .5t-.4 1.4V88h-1v-6h1v.9q.3-.5.7-.8.5-.3 1.1-.3 1 0 1.4.6.4.6.4 1.9zm13.8-4v1l-1-.4-1-.2q-.7 0-1.2.4-.4.3-.4 1 0 .5.3.7.3.3 1 .5l.6.1q1.2.3 1.7.9.5.5.5 1.5 0 1.2-.7 1.8-.7.6-2 .6L184 88q-.6 0-1.2-.3v-1.2l1.2.6 1.1.2q.8 0 1.3-.4t.5-1q0-.6-.4-1-.3-.3-1-.4l-.6-.2q-1.1-.2-1.6-.7-.6-.5-.6-1.4 0-1 .8-1.7.7-.7 1.9-.7l1 .1 1 .4zm7.6 4.2v.5h-4.3q0 1.2.5 1.8.5.5 1.5.5l1-.1 1-.5v1l-1 .3-1 .2q-1.5 0-2.2-.9-.8-.8-.8-2.3 0-1.4.7-2.3.8-.9 2.1-.9 1.1 0 1.8.8t.7 1.9zm-1-.3q0-.6-.4-1-.4-.5-1.1-.5-.8 0-1.2.4-.5.5-.5 1.1zm8.2-1-.6-.3-.8-.1q-.9 0-1.4.5-.5.6-.5 1.7v3h-1v-6h1v1.2q.3-.7.8-1 .5-.4 1.2-.4l.7.1.6.3zm1.3-1.2h1l1.8 5 1.8-5h1l-2.2 6h-1.2zm8.2 0h2.5v5.2h2v.8h-5v-.8h2v-4.4h-1.5zm1.5-2.3h1v1.2h-1zm9.5 8-.8.3q-.4.2-.9.2-1.4 0-2.2-.9-.8-.8-.8-2.3 0-1.5.8-2.3.8-.9 2.2-.9.5 0 .9.2.4 0 .8.3v1l-.8-.5-.9-.1q-1 0-1.4.6-.5.6-.5 1.7t.5 1.7q.5.6 1.4.6l1-.1.7-.5zm7.3-3.2v.5h-4.3q0 1.2.5 1.8.5.5 1.5.5l1-.1 1-.5v1l-1 .3-1 .2q-1.5 0-2.2-.9-.8-.8-.8-2.3 0-1.4.7-2.3.8-.9 2.1-.9 1.1 0 1.8.8t.7 1.9zm-1-.3q0-.6-.4-1-.4-.5-1.1-.5-.8 0-1.2.4-.5.5-.5 1.1zm11.9 7.1v-14h.8v14z"/>
  <path d="M268.9 91.3v-14h.8v14zm35 0v-14h.8v14z"/>
  <path d="M331.9 91.3v-14h.8v14zM367.3 81l-1.1 4h2.3zm-.6-1h1.3l2.4 8h-1.1l-.6-2H366l-.6 2h-1.1zm10 7.7-.8.3q-.4.2-.9.2-1.4 0-2.2-.9-.8-.8-.8-2.3 0-1.5.8-2.3.8-.9 2.2-.9.5 0 .9.2.4 0 .8.3v1l-.8-.5-.9-.1q-1 0-1.4.6-.5.6-.5 1.7t.5 1.7q.5.6 1.4.6l1-.1.7-.5zm4.6-7.4V82h2.2v.8h-2.2V86q0 .7.3 1 .2.2.8.2h1.1v.8h-1.2q-1 0-1.5-.4-.5-.5-.5-1.6v-3.2h-1.6V82h1.6v-1.7zm5.4 1.7h2.5v5.2h2v.8h-5v-.8h2v-4.4h-1.5zm1.5-2.3h1v1.2h-1zm7.1 3q-.7 0-1.1.6-.4.5-.4 1.7 0 1.1.4 1.7.4.6 1.1.6.8 0 1.2-.6.3-.6.3-1.7 0-1.2-.3-1.7-.4-.6-1.2-.6zm0-.9q1.3 0 2 .9.6.8.6 2.3 0 1.5-.7 2.3-.6.9-1.9.9-1.2 0-1.9-.9-.7-.8-.7-2.3 0-1.5.7-2.3.7-.9 2-.9zm9.3 2.5V88h-1v-3.7q0-.8-.2-1.2-.3-.4-1-.4-.6 0-1 .5t-.4 1.4V88h-1v-6h1v.9q.3-.5.7-.8.5-.3 1.1-.3 1 0 1.4.6.4.6.4 1.9zm6.6-2.1v1l-.8-.4-.9-.1q-.7 0-1 .2-.3.2-.3.6 0 .5.2.6l1.2.4.4.1q.8.2 1.2.6.3.4.3 1 0 1-.6 1.5t-1.8.5l-.9-.1-1-.3v-1l1 .4 1 .1q.6 0 1-.2.3-.3.3-.8 0-.7-1.3-1h-.4q-.9-.2-1.2-.6-.4-.4-.4-1 0-1 .6-1.4.5-.5 1.6-.5l1 .1.8.3zM420 80h1l.8 6.5 1-4.3h1l1 4.3.8-6.5h1l-1.2 8h-1l-1-4.8-1.2 4.8h-1zm10.3 2.7q-.7 0-1.1.6-.4.5-.4 1.7 0 1.1.4 1.7.4.6 1.1.6.8 0 1.2-.6.3-.6.3-1.7 0-1.2-.3-1.7-.4-.6-1.2-.6zm0-.9q1.3 0 2 .9.6.8.6 2.3 0 1.5-.7 2.3-.6.9-1.9.9-1.2 0-1.9-.9-.7-.8-.7-2.3 0-1.5.7-2.3.7-.9 2-.9zm9.9 1.4-.6-.3-.8-.1q-.9 0-1.4.5-.5.6-.5 1.7v3h-1v-6h1v1.2q.3-.7.8-1 .5-.4 1.2-.4l.7.1.6.3zm2.1-3.6h1v4.9l2.6-2.5h1.2l-2.4 2.3 2.8 3.7h-1.3l-2.2-3.1-.7.7V88h-1zm11.4 0v.9h-1.1q-.5 0-.8.2-.2.2-.2.8v.5h2.1v.8h-2V88h-1v-5.2H449V82h1.7v-.4q0-1 .4-1.5.5-.5 1.4-.5zm5.2 6.2q0 .7.2 1 .3.4.7.4h1.2v.8h-1.3q-.9 0-1.3-.6-.5-.5-.5-1.6v-5.4h-1.6v-.8h2.6zm6.4-3.1q-.7 0-1.1.6-.4.5-.4 1.7 0 1.1.4 1.7.4.6 1.1.6.8 0 1.2-.6.3-.6.3-1.7 0-1.2-.3-1.7-.4-.6-1.2-.6zm0-.9q1.3 0 2 .9.6.8.6 2.3 0 1.5-.7 2.3-.6.9-1.9.9-1.2 0-1.9-.9-.7-.8-.7-2.3 0-1.5.7-2.3.7-.9 2-.9zm3.7.2h1l1 4.8.9-3h.8l.9 3 1-4.8h1l-1.4 6h-1l-.9-3.3-1 3.3h-.9zm37.9 9.3v-14h.8v14zm11-6v-.9h6.8v1zm19.4-5.1v1l-.7-.3-.8-.2q-1 0-1.6.8-.5.8-.5 2.3.3-.5.7-.8.5-.3 1-.3 1.2 0 1.9.7.6.7.6 2t-.6 2q-.7.8-1.9.8-1.4 0-2-1-.7-1-.7-3.2 0-2 .8-3.1.8-1 2.3-1h.8l.7.3zm-2 3.3q-.6 0-1 .5t-.4 1.4q0 1 .4 1.4.4.5 1 .5.8 0 1.2-.5.3-.4.3-1.4 0-1-.3-1.4-.4-.5-1.1-.5zm13.6 7.8v-6h-3v-.9h3v-7.1h.8v14z"/>
  <path d="M569.9 91.3v-14h.8v14z"/>
  <path d="M597.9 85.3v-8h.8v7.1h3v1zm4 0v-.9h6.8v1zm7 0v-.9h6.8v1zm7 0v-.9h6.8v1zm7 0v-.9h6.8v1zm7 0v-.9h6.8v1zm7 0v-.9h6.8v1zm7 0v-.9h6.8v1zm7 0v-.9h6.8v1zm7 0v-.9h6.8v1zm7 0v-.9h6.8v1zm7 0v-.9h6.8v1zm7 0v-.9h6.8v1zm7 0v-.9h6.8v1zm7 0v-.9h6.8v1zm7 0v-.9h6.8v1zm7 0v-.9h6.8v1zm7 0v-.9h6.8v1zm7 0v-.9h6.8v1zm7 0v-.9h6.8v1zm7 0v-.9h6.8v1zm7 0v-.9h6.8v1zm7 0v-.9h6.8v1zm7 0v-.9h6.8v1zm7 0v-.9h6.8v1zm7 0v-.9h3v-7.1h.8v8z"/>
  <path d="M800.9 91.3v-14h.8v14z"/>
  <path d="M240.9 52.3v-14h.8v14z"/>
  <path d="M240.9 65.3v-14h.8v14z"/>
  <path d="M240.9 78.3v-14h.8v14zm4.1-19.2 6.6-3.2v6.5z"/>
  <path d="M268.9 78.3v-14h.8v14zm35 0v-14h.8v14z"/>
  <path d="M331.9 78.3v-14h.8v14zm175 0v-14h.8v14z"/>
  <path d="M534.9 78.3v-14h.8v14zm35 0v-14h.8v14z"/>
  <path d="M597.9 78.3v-14h.8v14zm175 0v-14h.8v14z"/>
  <path d="M800.9 78.3v-14h.8v14z"/>
  <path d="M251.9 59.3v-.9h6.8v1zm7 0v-.9h6.8v1zM268 61h3.7v1h-4.9v-1l1.8-1.8 1-1.1.7-1 .2-1q0-.6-.4-1t-1-.4l-1 .2-1.2.6v-1.1l1-.4 1.1-.2q1.2 0 2 .7.6.6.6 1.6l-.2 1q-.2.5-.8 1.2l-.9 1L268 61zm4.9-1.7v-.9h6.8v1zm7 0v-.9h6.8v1zm7 0v-.9h6.8v1zm7 0v-.9h6.8v1zm10.8 0v6h-.8v-6h-3v-.9h3v-7.1h.8v7.1h3v1zm3.2 0v-.9h6.8v1zm7 0v-.9h6.8v1zm7 0v-.9h6.8v1zm10 6v-14h.8v14zm175 0v-14h.8v14z"/>
  <path d="M534.9 65.3v-14h.8v14z"/>
  <path d="M548.9 65.3v-6.9h3.8v1h-3v6zm11-6v-.9h6.8v1z"/>
  <path d="M569.9 65.3v-14h.8v14z"/>
  <path d="M573.9 59.3v-.9h6.8v1zm14.1 3.1V56l6.6 3.2zm9.9 2.9v-14h.8v14zm35.4-4.3 1.9-7h1.1l-2.3 8h-1.3l-2.4-8h1.1zm5.4-5h2.5v5.2h2v.8h-5v-.8h2v-4.4h-1.5zm1.5-2.3h1v1.2h-1zm10 3.5-.6-.3-.8-.1q-.9 0-1.4.5-.5.6-.5 1.7v3h-1v-6h1v1.2q.3-.7.8-1 .5-.4 1.2-.4l.7.1.6.3zm4.1-2.9V56h2.2v.8h-2.2V60q0 .7.3 1 .2.2.8.2h1.1v.8h-1.2q-1 0-1.5-.4-.5-.5-.5-1.6v-3.2h-1.6V56h1.6v-1.7zm4.7 5.4V56h1v3.7q0 .8.3 1.2.3.4 1 .4.6 0 1-.5t.4-1.4V56h1v6h-1v-.9q-.3.5-.8.8-.4.3-1 .3-1 0-1.4-.6-.5-.7-.5-1.9zm9.8-.7h-.4q-.8 0-1.3.3-.4.3-.4.9 0 .5.3.8.4.3 1 .3.8 0 1.2-.5.5-.6.5-1.6V59zm1.9-.4V62h-1v-.9q-.3.5-.8.8-.5.3-1.2.3-.9 0-1.4-.6-.6-.5-.6-1.4 0-1 .7-1.5t2-.5h1.3V58q0-.7-.4-1-.3-.3-1.1-.3l-1 .1-1 .4v-1l1-.3h1q.7 0 1.3.2.5.2.8.6l.3.7v1.2zm5.2 1.2q0 .7.2 1 .3.4.7.4h1.2v.8h-1.3q-.9 0-1.3-.6-.5-.5-.5-1.6v-5.4h-1.6v-.8h2.6zm10.3-5.8h1.4l1.4 4 1.4-4h1.5v8h-1v-7l-1.5 4.1h-.8l-1.4-4.2V62h-1zm10.6 5h-.4q-.8 0-1.3.3-.4.3-.4.9 0 .5.3.8.4.3 1 .3.8 0 1.2-.5.5-.6.5-1.6V59zm1.9-.4V62h-1v-.9q-.3.5-.8.8-.5.3-1.2.3-.9 0-1.4-.6-.6-.5-.6-1.4 0-1 .7-1.5t2-.5h1.3V58q0-.7-.4-1-.3-.3-1.1-.3l-1 .1-1 .4v-1l1-.3h1q.7 0 1.3.2.5.2.8.6l.3.7v1.2zm7 3.1-.8.3q-.4.2-.9.2-1.4 0-2.2-.9-.8-.8-.8-2.3 0-1.5.8-2.3.8-.9 2.2-.9.5 0 .9.2.4 0 .8.3v1l-.8-.5-.9-.1q-1 0-1.4.6-.5.6-.5 1.7t.5 1.7q.5.6 1.4.6l1-.1.7-.5zm6.9-3.4V62h-1v-3.7q0-.8-.2-1.2-.3-.4-1-.4-.6 0-1 .5t-.4 1.4V62h-1v-8.4h1V57q.3-.5.8-.8.4-.3 1-.3 1 0 1.4.6.4.6.4 1.9zm3.1-2.3h2.5v5.2h2v.8h-5v-.8h2v-4.4h-1.5zm1.5-2.3h1v1.2h-1zm9.4 4.6V62h-1v-3.7q0-.8-.2-1.2-.3-.4-1-.4-.6 0-1 .5t-.4 1.4V62h-1v-6h1v.9q.3-.5.8-.8.4-.3 1-.3 1 0 1.4.6.4.6.4 1.9zm7.4.2v.5h-4.3q0 1.2.5 1.8.5.5 1.5.5l1-.1 1-.5v1l-1 .3-1 .2q-1.5 0-2.2-.9-.8-.8-.8-2.3 0-1.4.7-2.3.8-.9 2.1-.9 1.1 0 1.8.8t.7 1.9zm-1-.3q0-.6-.4-1-.4-.5-1.1-.5-.8 0-1.2.4-.5.5-.5 1.1zm39.9 7.1v-14h.8v14z"/>
  <path d="M800.9 65.3v-14h.8v14zm-532-13v-14h.8v14zm35 0v-14h.8v14z"/>
  <path d="M331.9 52.3v-14h.8v14zm175 0v-14h.8v14z"/>
  <path d="M534.9 52.3v-14h.8v14zm35 0v-14h.8v14z"/>
  <path d="M597.9 52.3v-14h.8v14zm175 0v-14h.8v14z"/>
  <path d="M800.9 52.3v-14h.8v14z"/>
  <path d="M69.9 33.3v-.9h6.8v1zm7 0v-.9h6.8v1zm7 0v-.9h6.8v1zm7 0v-.9h6.8v1zm7 0v-.9h6.8v1zm7 0v-.9h6.8v1zm7 0v-.9h6.8v1zm7 0v-.9h6.8v1zm7 0v-.9h6.8v1zm7 0v-.9h6.8v1zm7 0v-.9h6.8v1zm7 0v-.9h6.8v1zm7 0v-.9h6.8v1zm7 0v-.9h6.8v1zm7 0v-.9h6.8v1zm7 0v-.9h6.8v1zm7 0v-.9h6.8v1zm7 0v-.9h6.8v1zm7 0v-.9h6.8v1zm7 0v-.9h6.8v1zm7 0v-.9h6.8v1zm7 0v-.9h6.8v1zm7 0v-.9h6.8v1zm7 0v-.9h6.8v1zm10 6v-6h-3v-.9h3.8v7z"/>
  <path d="M268.9 39.3v-14h.8v14zm35 0v-14h.8v14z"/>
  <path d="M331.9 39.3v-6.9h3.8v1h-3v6zm4-6v-.9h6.8v1zm7 0v-.9h6.8v1zm7 0v-.9h6.8v1zm7 0v-.9h6.8v1zm7 0v-.9h6.8v1zm7 0v-.9h6.8v1zm7 0v-.9h6.8v1zm7 0v-.9h6.8v1zm7 0v-.9h6.8v1zm7 0v-.9h6.8v1zm7 0v-.9h6.8v1zm7 0v-.9h6.8v1zm7 0v-.9h6.8v1zm7 0v-.9h6.8v1zm7 0v-.9h6.8v1zm7 0v-.9h6.8v1zm7 0v-.9h6.8v1zm7 0v-.9h6.8v1zm7 0v-.9h6.8v1zm7 0v-.9h6.8v1zm7 0v-.9h6.8v1zm7 0v-.9h6.8v1zm7 0v-.9h6.8v1zm7 0v-.9h6.8v1zm10 6v-6h-3v-.9h3.8v7z"/>
  <path d="M534.9 39.3v-14h.8v14zm35 0v-14h.8v14z"/>
  <path d="M597.9 39.3v-6.9h3.8v1h-3v6zm4-6v-.9h6.8v1zm7 0v-.9h6.8v1zm7 0v-.9h6.8v1zm7 0v-.9h6.8v1zm7 0v-.9h6.8v1zm7 0v-.9h6.8v1zm7 0v-.9h6.8v1zm7 0v-.9h6.8v1zm7 0v-.9h6.8v1zm7 0v-.9h6.8v1zm7 0v-.9h6.8v1zm7 0v-.9h6.8v1zm7 0v-.9h6.8v1zm7 0v-.9h6.8v1zm7 0v-.9h6.8v1zm7 0v-.9h6.8v1zm7 0v-.9h6.8v1zm7 0v-.9h6.8v1zm7 0v-.9h6.8v1zm7 0v-.9h6.8v1zm7 0v-.9h6.8v1zm7 0v-.9h6.8v1zm7 0v-.9h6.8v1zm7 0v-.9h6.8v1zm10 6v-6h-3v-.9h3.8v7z"/>
  <g>
    <path d="M800.9 39.3v-14h.8v14zm-532-13v-14h.8v14zm35 0v-14h.8v14zm231 0v-14h.8v14zm35 0v-14h.8v14z"/>
    <path d="M800.9 26.3v-14h.8v14zm-759-19v-.9h6.8v1zm7 0v-.9h6.8v1zm7 0v-.9h6.8v1zm7 0v-.9h6.8v1zm7 0v-.9h6.8v1zm7 0v-.9h6.8v1zm7 0v-.9h6.8v1zm7 0v-.9h6.8v1zm7 0v-.9h6.8v1zm7 0v-.9h6.8v1zm7 0v-.9h6.8v1zm7 0v-.9h6.8v1zm7 0v-.9h6.8v1zm7 0v-.9h6.8v1zm7 0v-.9h6.8v1zm7 0v-.9h6.8v1zm7 0v-.9h6.8v1zm7 0v-.9h6.8v1zm7 0v-.9h6.8v1zm7 0v-.9h6.8v1zm7 0v-.9h6.8v1zm7 0v-.9h6.8v1zm7 0v-.9h6.8v1zm7 0v-.9h6.8v1zm7 0v-.9h6.8v1zm7 0v-.9h6.8v1zm7 0v-.9h6.8v1zm7 0v-.9h6.8v1zm7 0v-.9h6.8v1zm7 0v-.9h6.8v1zm7 0v-.9h6.8v1zm7 0v-.9h6.8v1zm10 6v-6h-3v-.9h3.8v7zm35 0V6.4h3.8v1h-3v6zm4-6v-.9h6.8v1zm7 0v-.9h6.8v1zm7 0v-.9h6.8v1zm7 0v-.9h6.8v1zm7 0v-.9h6.8v1zm7 0v-.9h6.8v1zm7 0v-.9h6.8v1zm7 0v-.9h6.8v1zm7 0v-.9h6.8v1zm7 0v-.9h6.8v1zm7 0v-.9h6.8v1zm7 0v-.9h6.8v1zm7 0v-.9h6.8v1zm7 0v-.9h6.8v1zm7 0v-.9h6.8v1zm7 0v-.9h6.8v1zm7 0v-.9h6.8v1zm7 0v-.9h6.8v1zm7 0v-.9h6.8v1zm7 0v-.9h6.8v1zm7 0v-.9h6.8v1zm7 0v-.9h6.8v1zm7 0v-.9h6.8v1zm7 0v-.9h6.8v1zm7 0v-.9h6.8v1zm7 0v-.9h6.8v1zm7 0v-.9h6.8v1zm7 0v-.9h6.8v1zm7 0v-.9h6.8v1zm7 0v-.9h6.8v1zm7 0v-.9h6.8v1zm7 0v-.9h6.8v1zm10 6v-6h-3v-.9h3.8v7zm35 0V6.4h3.8v1h-3v6zm4-6v-.9h6.8v1zm7 0v-.9h6.8v1zm7 0v-.9h6.8v1zm7 0v-.9h6.8v1zm7 0v-.9h6.8v1zm7 0v-.9h6.8v1zm7 0v-.9h6.8v1zm7 0v-.9h6.8v1zm7 0v-.9h6.8v1zm7 0v-.9h6.8v1zm7 0v-.9h6.8v1zm7 0v-.9h6.8v1zm7 0v-.9h6.8v1zm7 0v-.9h6.8v1zm7 0v-.9h6.8v1zm7 0v-.9h6.8v1zm7 0v-.9h6.8v1zm7 0v-.9h6.8v1zm7 0v-.9h6.8v1zm7 0v-.9h6.8v1zm7 0v-.9h6.8v1zm7 0v-.9h6.8v1zm7 0v-.9h6.8v1zm7 0v-.9h6.8v1zm7 0v-.9h6.8v1zm7 0v-.9h6.8v1zm7 0v-.9h6.8v1zm7 0v-.9h6.8v1zm7 0v-.9h6.8v1zm7 0v-.9h6.8v1zm7 0v-.9h6.8v1zm7 0v-.9h6.8v1z"/>
    <path d="M800.9 13.3v-6h-3v-.9h3.8v7z"/>
  </g>
</svg>
